<?xml version="1.0" encoding="utf-8"?>
<!-- Generator: Adobe Illustrator 16.0.0, SVG Export Plug-In . SVG Version: 6.00 Build 0)  -->
<!DOCTYPE svg PUBLIC "-//W3C//DTD SVG 1.1//EN" "http://www.w3.org/Graphics/SVG/1.1/DTD/svg11.dtd">
<svg version="1.1" id="Layer_1" xmlns="http://www.w3.org/2000/svg" xmlns:xlink="http://www.w3.org/1999/xlink" x="0px" y="0px"
	 width="1000px" height="1000px" viewBox="0 0 1000 1000" enable-background="new 0 0 1000 1000" xml:space="preserve">
<g display="none">
	<path display="inline" fill="#414042" d="M321.992,541.939c0,0,18.349,2,21.016-57.334c0,0-1.333-26.553,26-26.553h193.334v83.895
		L321.992,541.939z"/>
	<path display="inline" fill="#414042" d="M678.008,541.939c0,0-18.35,2-21.016-57.334c0,0,1.333-26.553-26-26.553H437.658v83.895
		L678.008,541.939z"/>
</g>
<g>
	<path fill="#6D6E71" d="M319.984,777.001c0,0,18.349,2,21.016-57.334c0,0-1.333-26.553,26-26.553h193.334v83.895L319.984,777.001z"
		/>
	<path fill="#6D6E71" d="M676,777.001c0,0-18.35,2-21.016-57.334c0,0,1.333-26.553-26-26.553H435.65v83.895L676,777.001z"/>
</g>
</svg>
