<?xml version="1.0" standalone="no"?>
<!DOCTYPE svg PUBLIC "-//W3C//DTD SVG 1.1//EN" "http://www.w3.org/Graphics/SVG/1.1/DTD/svg11.dtd" >
<svg xmlns="http://www.w3.org/2000/svg">
<metadata>
This is a custom SVG webfont generated by Font Squirrel.
Foundry     : Monotype Imaging Inc.
Foundry URL : http://www.monotypeimaging.com
</metadata>
<defs>
<font id="webfont1fMFqrdC" horiz-adv-x="1106" >
<font-face units-per-em="2048" ascent="1638" descent="-410" />
<missing-glyph horiz-adv-x="475" />
<glyph unicode=" "  horiz-adv-x="475" />
<glyph unicode="&#x09;" horiz-adv-x="475" />
<glyph unicode="&#xa0;" horiz-adv-x="475" />
<glyph unicode="!" horiz-adv-x="580" d="M428 518q0 -131 -139 -131q-137 0 -137 131v764q0 129 137 129q139 0 139 -129v-764zM291 -20q-72 0 -115 43t-43 112q0 71 43 113.5t115 42.5q67 0 111 -43.5t44 -112.5q0 -68 -43.5 -111.5t-111.5 -43.5z" />
<glyph unicode="&#x22;" horiz-adv-x="922" d="M369 950q0 -129 -129 -129q-138 0 -138 129v334q0 127 136 127q131 0 131 -127v-334zM817 950q0 -129 -135 -129q-131 0 -131 129v334q0 127 135 127q131 0 131 -127v-334z" />
<glyph unicode="#" horiz-adv-x="1348" d="M236 319h-107q-113 0 -113 82q0 69 28.5 101.5t100.5 32.5h129l58 331h-115q-113 0 -113 82q0 68 28.5 100.5t100.5 32.5h138l41 232q17 98 129 98q108 0 108 -92q0 -32 -10 -90l-27 -148h256l41 232q17 98 129 98q109 0 109 -92q0 -42 -10 -90l-27 -148h109 q112 0 112 -86q0 -129 -127 -129h-131l-59 -331h116q113 0 113 -86q0 -130 -127 -130h-139l-43 -245q-18 -103 -123 -103q-117 0 -117 103q0 9 6 51l33 194h-254l-43 -245q-18 -103 -123 -103q-116 0 -116 103q0 9 6 51zM516 535h256l57 331h-254z" />
<glyph unicode="$" d="M649 -8v-62q0 -73 -21.5 -90.5t-72.5 -17.5q-54 0 -73 19.5t-19 88.5v62q-141 15 -257 78.5t-116 142.5q0 40 36 80.5t81 40.5q38 0 84 -39q86 -73 172 -82v395q-189 50 -283 151t-94 253q0 151 102.5 259t274.5 130v55q0 59 21.5 82t74.5 23q51 0 70.5 -23t19.5 -82v-51 q137 -16 242.5 -86t105.5 -135q0 -43 -42 -86t-83 -43q-21 0 -34 6t-54 43q-66 64 -135 72v-361q194 -61 291.5 -167t97.5 -257q0 -165 -105 -276t-284 -123zM463 870v306q-119 -22 -119 -152q0 -117 119 -154zM649 555v-342q63 10 100 56.5t37 109.5q0 132 -137 176z" />
<glyph unicode="%" horiz-adv-x="2023" d="M479 604q-179 0 -286 115t-107 293q0 172 106 286.5t287 114.5q179 0 288.5 -111t109.5 -290t-108.5 -293.5t-289.5 -114.5zM479 1223q-69 0 -109 -56t-40 -155q0 -94 38.5 -157.5t110.5 -63.5q75 0 115.5 60t40.5 161q0 211 -156 211zM1497 1249l-790 -1194 q-50 -75 -97 -75q-46 0 -81 30t-35 72q0 37 28 74l801 1206q34 51 86 51q54 0 83.5 -28t29.5 -68q0 -32 -25 -68zM1542 -20q-180 0 -286.5 115t-106.5 292q0 172 106 286.5t287 114.5q179 0 287 -111.5t108 -289.5q0 -180 -107.5 -293.5t-287.5 -113.5zM1542 598 q-71 0 -111 -57t-40 -154q0 -98 39.5 -159.5t111.5 -61.5q75 0 115.5 60t40.5 161q0 211 -156 211z" />
<glyph unicode="&#x26;" horiz-adv-x="1276" d="M891 532q18 77 18 201q0 66 29 95.5t100 29.5q68 0 98.5 -26t30.5 -99q0 -182 -69 -366l159 -142q58 -52 58 -88q0 -49 -47.5 -99t-98.5 -50q-40 0 -82 37l-139 118q-155 -159 -413 -159q-212 0 -334.5 119.5t-122.5 287.5q0 118 50 206.5t151 147.5q-121 126 -121 267 q0 182 118 293.5t318 111.5q174 0 288.5 -73.5t114.5 -141.5q0 -53 -42.5 -97t-92.5 -44q-35 0 -82 39q-91 74 -186 74q-75 0 -115.5 -37t-40.5 -101q0 -58 34.5 -104t98.5 -105zM770 299q-322 287 -330 287q-82 -58 -82 -168q0 -91 57.5 -146t155.5 -55q117 0 199 82z" />
<glyph unicode="'" horiz-adv-x="473" d="M369 950q0 -129 -131 -129q-136 0 -136 129v334q0 127 136 127q131 0 131 -127v-334z" />
<glyph unicode="(" horiz-adv-x="541" d="M332 -162q-59 0 -102.5 49t-103.5 294.5t-60 498.5q0 265 60.5 501t105 285.5t102.5 49.5q61 0 96 -32.5t35 -82.5q0 -35 -27 -109q-98 -261 -98 -610q0 -354 104 -637q21 -59 21 -88q0 -52 -37 -85.5t-96 -33.5z" />
<glyph unicode=")" horiz-adv-x="541" d="M209 1518q59 0 102 -48t103.5 -292.5t60.5 -501.5q0 -259 -60 -497.5t-105 -288.5t-103 -50q-65 0 -98 33.5t-33 81.5q0 43 26 108q99 268 99 611q0 352 -105 637q-20 56 -20 88q0 52 37 85.5t96 33.5z" />
<glyph unicode="*" horiz-adv-x="881" d="M573 997l115 -102q33 -29 33 -68q0 -41 -45.5 -77.5t-81.5 -36.5q-55 0 -82 53l-74 133l-69 -133q-27 -53 -82 -53q-36 0 -81.5 36.5t-45.5 77.5q0 35 33 68l114 102l-143 9q-82 5 -82 94q0 11 17 73t77 62q30 0 51 -14l131 -72q-28 128 -28 151q0 109 110 109 q111 0 111 -109q0 -35 -29 -151l131 72q25 14 52 14q50 0 72 -55t22 -80q0 -87 -82 -94z" />
<glyph unicode="+" horiz-adv-x="1274" d="M768 401v-258q0 -127 -131 -127t-131 127v258h-246q-139 0 -139 123q0 127 139 127h246v254q0 66 29.5 96.5t101.5 30.5t101.5 -30.5t29.5 -96.5v-254h244q141 0 141 -127q0 -123 -141 -123h-244z" />
<glyph unicode="," horiz-adv-x="537" d="M209 -319q-60 0 -92.5 32t-32.5 80q0 62 27 129q26 69 26 135q0 22 -4 50l-4 49q0 83 32 121t107 38q83 0 118.5 -62t35.5 -194q0 -157 -63 -267.5t-150 -110.5z" />
<glyph unicode="-" horiz-adv-x="756" d="M571 420h-387q-137 0 -137 129t137 129h387q140 0 140 -129t-140 -129z" />
<glyph unicode="." horiz-adv-x="541" d="M268 -20q-76 0 -121 45.5t-45 121.5t44.5 122t121.5 46q76 0 123 -47t47 -121q0 -72 -48 -119.5t-122 -47.5z" />
<glyph unicode="/" horiz-adv-x="834" d="M788 1348l-487 -1422q-28 -82 -123 -82q-60 0 -102.5 34.5t-42.5 84.5q0 20 8 49l489 1424q31 90 123 90q62 0 105 -37.5t43 -87.5q0 -24 -13 -53z" />
<glyph unicode="0" d="M553 -20q-232 0 -357.5 184.5t-125.5 531.5q0 354 123 535.5t360 181.5q238 0 360.5 -185t122.5 -532q0 -344 -126 -530t-357 -186zM553 1163q-105 0 -154 -107t-49 -360q0 -234 50.5 -350.5t152.5 -116.5q101 0 152 116.5t51 350.5q0 241 -48.5 354t-154.5 113z" />
<glyph unicode="1" d="M473 1085l-82 -51q-53 -33 -102 -33q-39 0 -75 42.5t-36 84.5q0 71 74 111l246 147q52 31 104 31q152 0 152 -137v-1032h131q139 0 139 -123q0 -125 -139 -125h-563q-142 0 -142 125q0 123 142 123h151v837z" />
<glyph unicode="2" d="M375 260h426q141 0 141 -129q0 -131 -141 -131h-502q-107 0 -163 54t-56 147q0 128 83.5 253t315.5 300q137 103 170 155.5t33 106.5q0 70 -43.5 111.5t-120.5 41.5q-85 0 -170 -65q-57 -47 -106 -47q-45 0 -84 43t-39 92q0 82 128 151.5t288 69.5q201 0 314.5 -104 t113.5 -271q0 -147 -79 -251.5t-255 -235.5q-277 -206 -277 -277q0 -14 23 -14z" />
<glyph unicode="3" d="M633 831q155 -24 245.5 -127.5t90.5 -261.5q0 -192 -132 -327t-350 -135q-163 0 -281 68.5t-118 139.5q0 54 41.5 99t93.5 45q33 0 80 -39q84 -70 180 -70t150.5 62t54.5 147q0 101 -64 152t-192 51q-133 0 -133 113q0 55 43 102l227 237q27 28 27 43q0 19 -23 19h-344 q-135 0 -135 121q0 123 135 123h498q103 0 152 -37.5t49 -124.5q0 -100 -107 -205z" />
<glyph unicode="4" d="M918 279v-173q0 -129 -138 -129q-139 0 -139 129v173h-381q-217 0 -217 178q0 65 37 143l364 731q28 57 54.5 70.5t58.5 13.5q54 0 101 -33.5t47 -74.5q0 -30 -21 -74l-326 -655q-10 -20 -10 -33q0 -25 41 -25h252v420q0 127 139 127q138 0 138 -127v-416h45 q69 0 96.5 -28t27.5 -93q0 -68 -27.5 -96t-96.5 -28h-45z" />
<glyph unicode="5" d="M397 870q64 21 164 21q189 0 300.5 -118t111.5 -322q0 -199 -133 -335t-346 -136q-176 0 -289 71t-113 137q0 56 43.5 100t91.5 44q30 0 80 -39q93 -70 182 -70q92 0 147.5 57.5t55.5 157.5q0 103 -51 155t-152 52q-60 0 -127 -13q-68 -14 -106 -14q-54 0 -88.5 32 t-34.5 85q0 32 6 90l41 402q11 106 65 136t132 30h436q72 0 100.5 -29t28.5 -98t-30 -99t-99 -30h-371q-22 0 -22 -19z" />
<glyph unicode="6" d="M377 788h4q102 121 274 121q179 0 281 -122.5t102 -321.5q0 -205 -127 -345t-342 -140q-233 0 -356 155t-123 436q0 411 152 626.5t444 215.5q128 0 207.5 -33.5t79.5 -97.5q0 -58 -32 -105t-75 -47q-24 0 -43 6q-102 29 -155 29q-124 0 -197 -94.5t-94 -282.5zM580 672 q-92 0 -143.5 -58.5t-51.5 -156.5q0 -105 48.5 -172.5t135.5 -67.5q88 0 138.5 66.5t50.5 171.5q0 101 -50 159t-128 58z" />
<glyph unicode="7" d="M672 1137h-410q-139 0 -139 127q0 129 139 129h565q92 0 143.5 -48t51.5 -128q0 -78 -68 -177q-171 -251 -274.5 -500t-120.5 -448q-6 -57 -36 -86t-105 -29q-71 0 -104 31.5t-33 106.5q0 147 115 432t278 522q24 33 24 53q0 15 -26 15z" />
<glyph unicode="8" d="M324 745q-95 39 -142 112t-47 179q0 168 112 272.5t306 104.5q199 0 310.5 -102t111.5 -273q0 -98 -54 -179t-141 -116q119 -39 178.5 -126t59.5 -222q0 -179 -127 -297t-338 -118q-217 0 -341 110t-124 299q0 138 59 227t177 129zM553 1176q-63 0 -101 -43.5t-38 -114.5 q0 -67 36.5 -110.5t102.5 -43.5q65 0 103 45t38 109q0 69 -39 113.5t-102 44.5zM553 610q-85 0 -134.5 -54t-49.5 -140q0 -91 48.5 -143t135.5 -52q88 0 136 55t48 148q0 82 -50.5 134t-133.5 52z" />
<glyph unicode="9" d="M768 606h-4q-102 -121 -277 -121q-171 0 -277 117t-106 324q0 213 130.5 350t338.5 137q234 0 357 -152.5t123 -439.5q0 -421 -149 -631t-447 -210q-135 0 -213 36.5t-78 98.5q0 56 33 100.5t75 44.5q30 0 70 -14q55 -19 121 -19q127 0 201 86t102 293zM573 1176 q-84 0 -136 -65.5t-52 -176.5q0 -101 48.5 -157t131.5 -56q88 0 141.5 59.5t53.5 151.5q0 109 -48 176.5t-139 67.5z" />
<glyph unicode=":" horiz-adv-x="477" d="M238 649q-77 0 -123.5 47.5t-46.5 122.5q0 79 45.5 126.5t124.5 47.5q74 0 123 -49t49 -125q0 -72 -49 -121t-123 -49zM238 -20q-79 0 -124.5 47t-45.5 123q0 78 45.5 126t124.5 48q75 0 123.5 -49.5t48.5 -124.5q0 -73 -48 -121.5t-124 -48.5zM238 1044z" />
<glyph unicode=";" horiz-adv-x="541" d="M268 649q-77 0 -123.5 47.5t-46.5 122.5q0 79 46 126.5t124 47.5q75 0 123.5 -49.5t48.5 -124.5q0 -71 -48.5 -120.5t-123.5 -49.5zM209 -319q-60 0 -92.5 32t-32.5 80q0 62 27 129q26 69 26 135q0 22 -4 49.5t-4 49.5q0 83 32 121t107 38q83 0 118.5 -62t35.5 -194 q0 -157 -63 -267.5t-150 -110.5zM268 1044z" />
<glyph unicode="&#x3c;" horiz-adv-x="1274" d="M535 524l516 -272q75 -40 75 -107q0 -43 -30.5 -86t-77.5 -43q-51 0 -96 21l-693 375q-82 44 -82 102q0 84 86 127l662 358q61 33 117 33q47 0 80.5 -38t33.5 -97q0 -62 -75 -98z" />
<glyph unicode="=" horiz-adv-x="1274" d="M1012 602h-752q-139 0 -139 123q0 125 139 125h752q141 0 141 -125q0 -123 -141 -123zM1012 188h-752q-139 0 -139 123q0 127 139 127h752q141 0 141 -127q0 -123 -141 -123z" />
<glyph unicode="&#x3e;" horiz-adv-x="1274" d="M737 524l-516 275q-76 41 -76 104q0 45 31 90t78 45q41 0 96 -26l690 -373q84 -45 84 -104q0 -84 -86 -127l-663 -357q-65 -35 -115 -35q-49 0 -82 39t-33 96q0 62 76 101z" />
<glyph unicode="?" horiz-adv-x="903" d="M539 524v-22q0 -115 -140 -115q-139 0 -139 115v16q0 140 38 206.5t165 145.5q77 48 107 86t30 91q0 55 -37.5 89.5t-97.5 34.5q-80 0 -166 -63q-58 -42 -74 -49.5t-43 -7.5q-44 0 -84.5 40t-40.5 89q0 81 124.5 159t297.5 78q189 0 294.5 -96.5t105.5 -259.5 q0 -121 -53 -205t-177 -158q-74 -42 -92 -78.5t-18 -95.5zM403 -20q-72 0 -114.5 43t-42.5 112q0 71 42.5 113.5t114.5 42.5q67 0 111.5 -43.5t44.5 -112.5t-43.5 -112t-112.5 -43z" />
<glyph unicode="@" horiz-adv-x="1681" d="M967 385q-59 -133 -195 -133q-140 0 -222.5 109.5t-82.5 306.5q0 178 86 285.5t217 107.5q120 0 172 -100v22q0 78 113 78q110 0 110 -96v-455q0 -70 64 -70q57 0 93 72.5t36 222.5q0 219 -140 354.5t-366 135.5q-233 0 -379.5 -156.5t-146.5 -413.5q0 -244 137.5 -390 t357.5 -146q126 0 255 60q20 9 48 9q37 0 65 -28.5t28 -69.5q0 -78 -126 -121t-276 -43q-309 0 -506.5 204t-197.5 527q0 332 207.5 545t535.5 213q322 0 519.5 -190t197.5 -492q0 -221 -100.5 -351t-278.5 -130q-173 0 -225 133zM942 729q0 143 -108 143q-134 0 -134 -213 q0 -91 33.5 -143.5t95.5 -52.5q48 0 80.5 36.5t32.5 108.5v121z" />
<glyph unicode="A" horiz-adv-x="1290" d="M891 367h-492q-26 -87 -43 -155q-43 -167 -66 -201t-83 -34q-78 0 -124 28t-46 71q0 69 87.5 340.5t176 500t140 338t91.5 135t117 25.5h2q101 0 156 -63t250.5 -614.5t195.5 -645.5q0 -54 -48.5 -84.5t-125.5 -30.5q-61 0 -80.5 44t-89.5 288zM819 612q-78 249 -172 484 q-139 -375 -170 -484h342z" />
<glyph unicode="B" horiz-adv-x="1202" d="M899 743q122 -34 192 -121t70 -210q0 -198 -126 -305t-351 -107h-319q-205 0 -205 193v991q0 209 217 209h268q232 0 348.5 -90t116.5 -269q0 -104 -57 -182.5t-154 -108.5zM442 848h224q72 0 116.5 40.5t44.5 108.5q0 154 -182 154h-168q-35 0 -35 -39v-264zM442 600 v-328q0 -32 29 -32h217q191 0 191 176q0 88 -57 136t-152 48h-228z" />
<glyph unicode="C" horiz-adv-x="1255" d="M719 -20q-293 0 -460 185.5t-167 514.5q0 346 176 539.5t488 193.5q180 0 319 -68t139 -147q0 -48 -41.5 -95.5t-91.5 -47.5q-35 0 -98 39q-112 67 -233 67q-174 0 -274.5 -125t-100.5 -348q0 -213 96.5 -335t280.5 -122q119 0 252 85q48 30 79 30q45 0 84 -45.5 t39 -87.5q0 -82 -147.5 -157.5t-339.5 -75.5z" />
<glyph unicode="D" horiz-adv-x="1421" d="M639 0h-274q-205 0 -205 193v981q0 219 225 219h264q317 0 498.5 -184t181.5 -498q0 -325 -184 -518t-506 -193zM662 1143h-181q-39 0 -39 -43v-815q0 -35 29 -35h178q193 0 295.5 119.5t102.5 332.5q0 209 -99.5 323t-285.5 118z" />
<glyph unicode="E" horiz-adv-x="1114" d="M442 850h375q74 0 114 -20.5t40 -100.5q0 -74 -30 -101.5t-124 -27.5h-375v-315q0 -35 29 -35h406q83 0 119 -23t36 -100q0 -75 -31 -101t-124 -26h-512q-94 0 -149.5 49.5t-55.5 143.5v991q0 104 54 156.5t163 52.5h506q86 0 117.5 -23.5t31.5 -99.5q0 -81 -33.5 -104 t-115.5 -23h-406q-35 0 -35 -39v-254z" />
<glyph unicode="F" horiz-adv-x="1075" d="M442 819h361q84 0 116.5 -23t32.5 -100q0 -72 -34.5 -99.5t-114.5 -27.5h-361v-473q0 -119 -147 -119q-71 0 -103 26.5t-32 94.5v1086q0 209 217 209h514q83 0 115 -22t32 -101q0 -77 -36 -102t-111 -25h-414q-35 0 -35 -37v-287z" />
<glyph unicode="G" horiz-adv-x="1372" d="M1243 268q0 -148 -158.5 -218t-345.5 -70q-307 0 -477 185t-170 519q0 333 182.5 531t477.5 198q191 0 331 -65.5t140 -135.5q0 -49 -38.5 -97t-84.5 -48q-33 0 -109 37q-119 57 -229 57q-173 0 -280 -125t-107 -344q0 -222 102 -343.5t289 -121.5q64 0 129.5 19.5 t65.5 75.5v221h-187q-64 0 -93.5 22.5t-29.5 102.5q0 70 30.5 98.5t98.5 28.5h324q69 0 104 -32t35 -95v-400z" />
<glyph unicode="H" horiz-adv-x="1399" d="M1239 96q0 -68 -35 -93.5t-104 -25.5q-72 0 -108 25.5t-36 93.5v490h-514v-490q0 -119 -145 -119q-72 0 -104.5 26t-32.5 93v1204q0 61 27.5 88t113.5 27t113.5 -28t27.5 -87v-454h514v454q0 60 28.5 87.5t115.5 27.5q86 0 112.5 -28.5t26.5 -86.5v-1204z" />
<glyph unicode="I" horiz-adv-x="602" d="M442 96q0 -119 -145 -119q-72 0 -104.5 26t-32.5 93v1204q0 61 27.5 88t113.5 27t113.5 -28t27.5 -87v-1204z" />
<glyph unicode="J" horiz-adv-x="989" d="M825 483q0 -239 -120.5 -371t-350.5 -132q-126 0 -238 53t-112 123q0 53 38 97t89 44q32 0 80 -27q85 -45 154 -45q178 0 178 275v800q0 64 29.5 89.5t111.5 25.5q81 0 111 -27t30 -88v-817z" />
<glyph unicode="K" horiz-adv-x="1223" d="M756 770q146 -154 262 -317t155 -237t39 -103q0 -54 -59 -96t-119 -42q-56 0 -100 74q-233 378 -393 549q-42 -33 -75 -62q-15 -13 -24 -20v-418q0 -121 -145 -121q-66 0 -101.5 25.5t-35.5 95.5v1202q0 61 29 88t112 27q80 0 110.5 -25.5t30.5 -89.5v-471 q266 260 441 525q41 63 100 63q63 0 116.5 -41.5t53.5 -91.5q0 -113 -397 -514z" />
<glyph unicode="L" horiz-adv-x="1047" d="M862 0h-495q-94 0 -150.5 49.5t-56.5 143.5v1093q0 72 33.5 100.5t105.5 28.5q77 0 110 -27t33 -102v-995q0 -33 29 -33h391q82 0 119 -25t37 -102t-32.5 -104t-123.5 -27z" />
<glyph unicode="M" horiz-adv-x="1636" d="M1477 94q0 -67 -30 -92t-106 -25q-71 0 -96.5 24.5t-25.5 92.5v840h-9l-233 -436q-44 -82 -76 -104.5t-88 -22.5t-88 26.5t-70 98.5l-227 426h-8v-828q0 -67 -26 -92t-101 -25q-79 0 -106 26.5t-27 90.5v1166q0 88 33.5 121.5t113.5 33.5q107 0 156 -90l354 -674l350 658 q36 68 71 87t91 19q84 0 116 -36t32 -119v-1166z" />
<glyph unicode="N" horiz-adv-x="1432" d="M1272 129q0 -152 -129 -152q-58 0 -93 20.5t-67 72.5l-555 845v-821q0 -67 -31.5 -92t-99.5 -25q-72 0 -104.5 25t-32.5 92v1147q0 98 29.5 136t105.5 38q56 0 85 -18.5t62 -67.5l562 -848v813q0 68 28.5 94.5t102.5 26.5q77 0 107 -26.5t30 -94.5v-1165z" />
<glyph unicode="O" horiz-adv-x="1466" d="M737 -20q-309 0 -477 203t-168 517q0 315 174.5 514t470.5 199q291 0 464 -195.5t173 -517.5q0 -318 -174 -519t-463 -201zM737 1161q-161 0 -261.5 -123t-100.5 -338q0 -216 97 -342.5t265 -126.5q163 0 259 127t96 342q0 205 -93.5 333t-261.5 128z" />
<glyph unicode="P" horiz-adv-x="1192" d="M442 487v-393q0 -67 -36 -92t-107 -25q-69 0 -104 25t-35 92v1086q0 213 217 213h266q243 0 365 -112.5t122 -336.5q0 -204 -135.5 -330.5t-365.5 -126.5h-187zM442 737h195q105 0 158 50.5t53 152.5q0 113 -51.5 162t-157.5 49h-162q-35 0 -35 -39v-375z" />
<glyph unicode="Q" horiz-adv-x="1466" d="M883 -6q0 -87 94 -96q127 -11 127 -117q0 -129 -133 -129q-170 0 -266.5 86.5t-104.5 253.5q-240 40 -374 237.5t-134 470.5q0 316 175.5 514.5t469.5 198.5q286 0 461.5 -194.5t175.5 -518.5q0 -269 -131 -463t-360 -243zM737 1161q-166 0 -264 -125.5t-98 -335.5 q0 -212 95 -340.5t267 -128.5q165 0 260 130t95 339q0 205 -94 333t-261 128z" />
<glyph unicode="R" horiz-adv-x="1233" d="M442 553v-459q0 -64 -31 -90.5t-112 -26.5q-69 0 -104 24t-35 93v1090q0 209 217 209h264q241 0 362 -97.5t121 -291.5q0 -146 -84 -243t-231 -126q137 -51 244.5 -266t107.5 -287q0 -45 -49.5 -80t-126.5 -35q-69 0 -104 84q-155 367 -222 434.5t-180 67.5h-37zM442 799 h179q221 0 221 174q0 180 -193 180h-172q-35 0 -35 -39v-315z" />
<glyph unicode="S" horiz-adv-x="1067" d="M510 -20q-170 0 -304 58.5t-134 143.5q0 58 39 103t86 45q40 0 112 -39q113 -64 211 -64q193 0 193 164q0 62 -40 104.5t-192 92.5q-226 74 -308.5 170.5t-82.5 245.5q0 185 127.5 297t331.5 112q140 0 281 -49.5t141 -140.5q0 -53 -37 -99.5t-86 -46.5q-41 0 -103 33 q-100 51 -190 51t-136 -40t-46 -103q0 -56 36.5 -96.5t159.5 -79.5q260 -83 343 -185.5t83 -255.5q0 -192 -126 -306.5t-359 -114.5z" />
<glyph unicode="T" horiz-adv-x="1114" d="M698 1135v-1039q0 -119 -145 -119q-71 0 -104 25.5t-33 93.5v1039h-281q-68 0 -93.5 31.5t-25.5 97.5q0 69 26 99t93 30h850q58 0 85.5 -24t27.5 -105t-28.5 -105t-84.5 -24h-287z" />
<glyph unicode="U" horiz-adv-x="1341" d="M1186 461q0 -223 -140 -352t-378 -129q-241 0 -376.5 127.5t-135.5 353.5v833q0 121 141 121t141 -121v-829q0 -234 230 -234q235 0 235 234v829q0 121 146 121q137 0 137 -121v-833z" />
<glyph unicode="V" horiz-adv-x="1239" d="M594 303q182 435 309 989q16 74 36.5 99.5t74.5 25.5q83 0 128.5 -29.5t45.5 -74.5q0 -72 -48.5 -254t-133.5 -418t-164 -406.5t-105.5 -200.5t-60.5 -43.5t-88 -13.5q-96 0 -137 36t-123 252.5t-179.5 548t-97.5 489.5q0 52 51 83t134 31q48 0 67 -24.5t31 -94.5 q71 -457 260 -995z" />
<glyph unicode="W" horiz-adv-x="2015" d="M987 934q-40 -195 -155 -518t-152 -381t-133 -58q-74 0 -109 22t-72.5 112.5t-114.5 360.5t-128 516.5t-51 330.5q0 98 178 98q50 0 69.5 -24t34.5 -97q96 -572 209 -972q205 512 307 987q16 70 46.5 88t82.5 18q66 0 83.5 -10.5t42.5 -63.5q109 -546 264 -1019 q41 109 123 396.5t103 390.5q49 233 66.5 269.5t85.5 36.5q168 0 168 -102q0 -58 -52 -261.5t-125.5 -437.5t-139.5 -400t-86.5 -191t-51 -36.5t-79.5 -11.5q-105 0 -140 58.5t-131.5 365t-142.5 533.5z" />
<glyph unicode="X" horiz-adv-x="1161" d="M786 707q160 -150 247 -305t87 -285q0 -86 -34 -113t-103 -27q-75 0 -108 27.5t-37 101.5q-15 210 -252 449q-245 -242 -260 -446q-7 -84 -38.5 -108t-105.5 -24q-77 0 -109 32.5t-32 107.5q0 127 94 290.5t256 311.5q-303 315 -303 569q0 127 148 127q61 0 93.5 -19 t39.5 -89q16 -205 225 -437q219 237 246 437q13 108 133 108q82 0 114.5 -26.5t32.5 -98.5q0 -227 -334 -583z" />
<glyph unicode="Y" horiz-adv-x="1065" d="M680 532v-434q0 -121 -143 -121q-73 0 -106.5 26.5t-33.5 94.5v437q-146 150 -253 373t-107 386q0 65 30 93t111 28q71 0 100 -22.5t35 -79.5q32 -207 80.5 -325.5t147.5 -229.5q118 135 169 254.5t74 281.5q9 65 38 93t104 28q83 0 111 -27.5t28 -91.5q0 -172 -110 -384 t-275 -380z" />
<glyph unicode="Z" horiz-adv-x="1100" d="M240 1130q-148 1 -148 127q0 136 148 136h604q198 0 198 -162q0 -133 -117.5 -286t-289.5 -329q-261 -267 -287 -356h553q146 0 146 -133q0 -72 -37 -99.5t-109 -27.5h-684q-168 0 -168 162q0 235 410 645q249 249 272 323h-491z" />
<glyph unicode="[" horiz-adv-x="596" d="M437 1258h-19h-22q-13 0 -19 -10.5t-6 -37.5v-1071q0 -43 24 -43h29q141 0 141 -129t-141 -129h-127q-95 0 -147 56t-52 151v1270q0 100 49.5 150.5t149.5 50.5h127q141 0 141 -130q-3 -127 -128 -128z" />
<glyph unicode="\" horiz-adv-x="834" d="M41 1360l-6 43q0 49 42 87t103 38q94 0 125 -88l467 -1362q31 -90 31 -113q0 -49 -44 -84t-104 -35q-92 0 -123 84z" />
<glyph unicode="]" horiz-adv-x="596" d="M170 1516h129q99 0 149 -50.5t50 -150.5v-1270q0 -95 -52 -151t-147 -56h-129q-139 0 -139 129t139 129h31q24 0 24 43v1071q0 31 -6 39t-26 8h-23q-139 0 -139 129q0 130 139 130z" />
<glyph unicode="^" horiz-adv-x="1208" d="M604 1057l-266 -373q-47 -66 -115 -66q-47 0 -93 36.5t-46 86.5q0 32 33 86l364 523q44 63 123 63q84 0 116 -57l376 -537q28 -40 28 -82q0 -41 -42 -80t-97 -39q-56 0 -113 68z" />
<glyph unicode="_" horiz-adv-x="1024" d="M1018 -385h-1012q-98 0 -98 125q0 119 98 119h1012q98 0 98 -119q0 -125 -98 -125z" />
<glyph unicode="`" horiz-adv-x="532" d="M229 1583l177 -135q63 -48 63 -109q0 -38 -34 -75t-73 -37q-47 0 -100 39l-196 139q-66 47 -66 96q0 51 38 89t81 38q53 0 110 -45z" />
<glyph unicode="a" horiz-adv-x="1171" d="M1032 88q0 -58 -28 -84.5t-113 -26.5q-80 0 -107.5 24t-27.5 73v78q-42 -88 -113 -131.5t-170 -43.5q-190 0 -300 143t-110 404q0 242 113 392.5t303 150.5q97 0 166.5 -41t110.5 -123v58q0 55 29 80.5t112 25.5q78 0 106.5 -27.5t28.5 -85.5v-866zM756 598 q0 103 -52 167t-147 64q-107 0 -160 -76.5t-53 -228.5q0 -155 52 -232t157 -77q91 0 147 61.5t56 172.5v149z" />
<glyph unicode="b" horiz-adv-x="1171" d="M139 1425q0 111 137 111q140 0 140 -111v-532q44 87 119.5 130.5t183.5 43.5q181 0 285 -138t104 -397q0 -248 -112 -401.5t-304 -153.5q-100 0 -169 41t-107 123v-57q0 -55 -29.5 -81t-112.5 -26q-135 0 -135 113v1335zM416 451q0 -107 50.5 -171.5t147.5 -64.5 q106 0 159.5 77t53.5 232q0 152 -52.5 228.5t-156.5 76.5q-95 0 -148.5 -61t-53.5 -172v-145z" />
<glyph unicode="c" horiz-adv-x="987" d="M942 874q0 -47 -38 -94t-85 -47q-40 0 -94 37q-78 53 -158 53q-112 0 -167.5 -74.5t-55.5 -222.5q0 -152 55 -227.5t166 -75.5q77 0 160 49q57 35 88 35q51 0 89 -45.5t38 -87.5q0 -62 -112.5 -129.5t-278.5 -67.5q-227 0 -356.5 145.5t-129.5 403.5q0 252 134.5 396.5 t361.5 144.5q124 0 253.5 -52t129.5 -141z" />
<glyph unicode="d" horiz-adv-x="1171" d="M1032 88q0 -58 -28 -84.5t-113 -26.5q-80 0 -107.5 24t-27.5 73v78q-42 -88 -113 -131.5t-170 -43.5q-190 0 -300 143t-110 404q0 242 113 392.5t303 150.5q97 0 166.5 -41t110.5 -123v527q0 55 29 80.5t112 25.5q78 0 106.5 -27.5t28.5 -85.5v-1335zM756 598 q0 103 -52 167t-147 64q-107 0 -160 -76.5t-53 -228.5q0 -155 52 -232t157 -77q91 0 147 61.5t56 172.5v149z" />
<glyph unicode="e" horiz-adv-x="1098" d="M346 424q12 -113 73 -169t171 -56q121 0 215 56q36 21 69 21q44 0 75.5 -35.5t31.5 -78.5q0 -75 -124 -130t-296 -55q-236 0 -367 140.5t-131 390.5q0 260 136.5 409.5t371.5 149.5q217 0 341 -127.5t124 -351.5q0 -96 -37.5 -130t-111.5 -34h-541zM764 627 q-5 110 -55.5 165.5t-145.5 55.5q-97 0 -151.5 -55.5t-65.5 -165.5h418z" />
<glyph unicode="f" horiz-adv-x="655" d="M444 1044h74q67 0 92 -21t25 -83q0 -63 -26.5 -86t-90.5 -23h-74v-743q0 -111 -137 -111q-139 0 -139 111v743h-43q-65 0 -94 21.5t-29 87.5q0 60 27 82t96 22h43v130q0 167 99.5 264.5t264.5 97.5q102 0 177 -33.5t75 -89.5q0 -46 -29.5 -88.5t-66.5 -42.5q-21 0 -55 12 q-54 17 -84 17q-105 0 -105 -131v-136z" />
<glyph unicode="g" horiz-adv-x="1171" d="M1032 106q0 -271 -131 -406.5t-393 -135.5q-121 0 -262.5 47.5t-141.5 130.5q0 51 35.5 94t81.5 43q26 0 92 -33q102 -51 201 -51q121 0 181.5 70t60.5 209v125q-41 -85 -114.5 -127.5t-178.5 -42.5q-189 0 -294.5 134.5t-105.5 385.5q0 238 112 378t304 140 q99 0 168 -41t109 -123v58q0 53 26.5 79.5t112.5 26.5q137 0 137 -113v-848zM756 610q0 99 -52.5 162.5t-146.5 63.5q-107 0 -160 -72t-53 -215q0 -145 52.5 -217t158.5 -72q94 0 147.5 59t53.5 152v139z" />
<glyph unicode="h" horiz-adv-x="1178" d="M1042 92q0 -115 -137 -115q-81 0 -110 29.5t-29 85.5v549q0 89 -43 138.5t-121 49.5q-93 0 -139.5 -59.5t-46.5 -177.5v-500q0 -115 -142 -115q-135 0 -135 115v1333q0 58 31.5 84.5t110.5 26.5q73 0 104 -25.5t31 -85.5v-522q55 82 129 123t168 41q152 0 240.5 -102.5 t88.5 -292.5v-580z" />
<glyph unicode="i" horiz-adv-x="555" d="M279 1180q-61 0 -103.5 43t-42.5 102q0 61 42.5 105.5t103.5 44.5q59 0 103 -45t44 -105q0 -59 -43.5 -102t-103.5 -43zM416 88q0 -111 -140 -111q-137 0 -137 111v873q0 52 28 79t112 27q137 0 137 -106v-873z" />
<glyph unicode="j" horiz-adv-x="555" d="M279 1180q-61 0 -103.5 43t-42.5 102q0 61 42.5 105.5t103.5 44.5q59 0 103 -45t44 -105q0 -59 -43.5 -102t-103.5 -43zM416 -49q0 -191 -86 -287t-258 -96q-94 0 -161 31t-67 92q0 50 24.5 89t84.5 42q73 -15 98 -15q44 0 66 36t22 108v1012q0 55 31.5 79.5t108.5 24.5 q137 0 137 -104v-1012z" />
<glyph unicode="k" horiz-adv-x="1075" d="M416 651q168 155 311 353q50 63 96 63q54 0 103 -40.5t49 -84.5q0 -35 -24 -76.5t-105.5 -125.5t-151.5 -146q116 -119 220 -272.5t104 -219.5q0 -49 -45 -87t-105 -38q-74 0 -116 78q-139 250 -263 385l-73 -53v-299q0 -111 -142 -111q-135 0 -135 111v1344 q0 55 30.5 79.5t109.5 24.5q78 0 107.5 -25.5t29.5 -78.5v-781z" />
<glyph unicode="l" horiz-adv-x="555" d="M416 90q0 -113 -142 -113q-135 0 -135 113v1342q0 54 29 79t111 25q78 0 107.5 -25.5t29.5 -78.5v-1342z" />
<glyph unicode="m" horiz-adv-x="1749" d="M1616 88q0 -111 -135 -111q-142 0 -142 111v551q0 95 -36 142.5t-107 47.5q-90 0 -135 -60.5t-45 -180.5v-500q0 -111 -135 -111q-142 0 -142 111v551q0 95 -37.5 142.5t-111.5 47.5q-87 0 -130.5 -60.5t-43.5 -180.5v-500q0 -111 -142 -111q-135 0 -135 111v875 q0 53 29.5 78.5t110.5 25.5q137 0 137 -104v-60q51 82 121.5 123t160.5 41q94 0 161 -45t106 -135q50 90 127.5 135t183.5 45q164 0 252 -104t88 -301v-574z" />
<glyph unicode="n" horiz-adv-x="1178" d="M1042 92q0 -115 -137 -115q-81 0 -110 29.5t-29 85.5v549q0 89 -43 138.5t-121 49.5q-93 0 -139.5 -59.5t-46.5 -177.5v-500q0 -115 -142 -115q-135 0 -135 115v864q0 58 31.5 84.5t110.5 26.5q77 0 106 -25t29 -79v-60q55 82 129 123t168 41q152 0 240.5 -102.5 t88.5 -292.5v-580z" />
<glyph unicode="o" horiz-adv-x="1130" d="M565 -23q-226 0 -364 149.5t-138 395.5q0 251 138 397t364 146q229 0 365.5 -148t136.5 -395t-139.5 -396t-362.5 -149zM567 829q-107 0 -165 -80.5t-58 -226.5q0 -141 57.5 -225t163.5 -84t163.5 83.5t57.5 225.5q0 148 -56.5 227.5t-162.5 79.5z" />
<glyph unicode="p" horiz-adv-x="1171" d="M139 956q0 111 137 111q140 0 140 -111v-65q44 88 119.5 132t183.5 44q181 0 285 -138t104 -397q0 -248 -114 -401.5t-306 -153.5q-94 0 -162 38t-110 114v-455q0 -52 -27.5 -79t-114.5 -27q-75 0 -105 27t-30 86v1275zM416 451q0 -107 50.5 -171.5t147.5 -64.5 q106 0 159.5 77t53.5 232q0 152 -52.5 228.5t-156.5 76.5q-95 0 -148.5 -61t-53.5 -172v-145z" />
<glyph unicode="q" horiz-adv-x="1171" d="M1032 -322q0 -56 -26 -83t-115 -27q-85 0 -110 25t-25 71v488q-42 -88 -113 -131.5t-170 -43.5q-190 0 -300 143t-110 404q0 242 113 392.5t303 150.5q97 0 166.5 -41t110.5 -123v58q0 55 29 80.5t112 25.5q78 0 106.5 -27.5t28.5 -85.5v-1276zM756 598q0 103 -52 167 t-147 64q-107 0 -160 -76.5t-53 -228.5q0 -155 52 -232t157 -77q91 0 147 61.5t56 172.5v149z" />
<glyph unicode="r" horiz-adv-x="848" d="M416 897q37 84 99.5 126t150.5 42q75 0 126.5 -30t51.5 -91q0 -68 -33 -108.5t-74 -40.5q-19 0 -45 6q-40 14 -80 14q-108 0 -152 -75.5t-44 -245.5v-402q0 -58 -28 -86.5t-112 -28.5q-80 0 -108.5 28.5t-28.5 86.5v866q0 53 29 81t113 28q135 0 135 -106v-64z" />
<glyph unicode="s" horiz-adv-x="958" d="M473 -23q-145 0 -273 44t-128 114q0 52 29 92.5t73 40.5q34 0 111 -32q99 -41 188 -41q131 0 131 92q0 46 -35.5 70.5t-113.5 41.5q-194 43 -281.5 119.5t-87.5 208.5q0 160 117.5 250t308.5 90q106 0 231 -40.5t125 -121.5q0 -45 -30 -86t-70 -41q-29 0 -74 21 q-120 53 -196 53q-63 0 -98 -28t-35 -70q0 -81 157 -119q206 -45 285.5 -120t79.5 -202q0 -142 -112 -239t-302 -97z" />
<glyph unicode="t" horiz-adv-x="801" d="M444 831v-522q0 -47 20 -70.5t60 -23.5q33 0 84 18q36 15 64 15q40 0 66 -37t26 -86q0 -70 -92.5 -109t-198.5 -39q-153 0 -229 85t-76 255v514h-33q-76 0 -104.5 17t-28.5 92q0 60 20.5 82t96.5 22h49v199q0 62 30.5 87.5t108.5 25.5q79 0 108 -26t29 -87v-199h197 q57 0 80.5 -20.5t23.5 -83.5t-24 -86t-80 -23h-197z" />
<glyph unicode="u" horiz-adv-x="1178" d="M135 956q0 111 137 111q140 0 140 -111v-553q0 -85 42 -136.5t124 -51.5q92 0 138 62.5t46 187.5v491q0 111 141 111q135 0 135 -111v-874q0 -53 -28.5 -79t-110.5 -26q-77 0 -107 25t-30 80v57q-52 -81 -123.5 -121.5t-163.5 -40.5q-163 0 -251.5 102.5t-88.5 295.5v581 z" />
<glyph unicode="v" horiz-adv-x="1087" d="M539 260q66 145 132 358.5t97 366.5q16 82 123 82q60 0 102.5 -29t42.5 -73q0 -77 -65.5 -284t-169 -421.5t-147.5 -248.5t-115 -34h-21q-72 0 -112 34t-139.5 255.5t-157.5 420t-58 278.5q0 45 43 73.5t109 28.5q98 0 116 -96q83 -376 220 -711z" />
<glyph unicode="w" horiz-adv-x="1550" d="M782 668q-25 -135 -87.5 -346t-91.5 -278t-114 -67h-34q-85 0 -111.5 31t-78.5 173t-105.5 326.5t-78 301.5t-24.5 156q0 102 150 102q52 0 78.5 -16.5t38.5 -77.5q69 -409 155 -690q125 391 178 694q16 90 131 90q55 0 85 -18.5t40 -71.5q66 -354 179 -694 q84 323 135 680q10 68 40.5 86t80.5 18q145 0 145 -104q0 -137 -108 -513.5t-150.5 -424.5t-108.5 -48h-49q-64 0 -96.5 36t-101 263.5t-97.5 391.5z" />
<glyph unicode="x" horiz-adv-x="1038" d="M719 537q138 -124 207 -239t69 -222q0 -99 -141 -99q-92 0 -121 77l-4 24q-53 182 -209 319q-136 -109 -192 -321q-14 -57 -47 -78t-93 -21q-127 0 -127 99q0 107 69.5 222.5t209.5 238.5q-117 110 -179.5 224.5t-62.5 199.5q0 106 148 106q53 0 80 -24t43 -80 q56 -187 163 -283q123 98 175 283q13 61 39 82.5t83 21.5q150 0 150 -111q0 -93 -65 -197.5t-195 -221.5z" />
<glyph unicode="y" horiz-adv-x="1059" d="M387 25q-150 271 -243 542t-93 400q0 45 39 73.5t103 28.5q55 0 82.5 -19t37.5 -73q67 -368 222 -692q125 288 208 700q18 84 123 84q59 0 100.5 -28.5t41.5 -73.5q0 -84 -87 -355q-47 -146 -111 -293.5t-143 -296.5q-138 -253 -271 -354.5t-285 -101.5q-117 0 -117 123 q0 86 88 98q96 10 172.5 69.5t132.5 168.5z" />
<glyph unicode="z" horiz-adv-x="954" d="M344 236h426q69 0 101 -22.5t32 -88.5q0 -125 -133 -125h-577q-152 0 -152 150q0 151 274 397q255 228 252 262h-364q-68 0 -96.5 26.5t-28.5 92.5q0 116 125 116h555q143 0 143 -122q0 -153 -313 -435q-243 -217 -244 -251z" />
<glyph unicode="{" horiz-adv-x="723" d="M330 678q76 -35 120 -107.5t44 -248.5v-136q0 -108 79 -108q95 0 95 -125q0 -117 -142 -117q-151 0 -226 90t-75 271v163q0 183 -90 197q-88 15 -88 121q0 56 25.5 82.5t81.5 42.5q31 9 51 60t20 126v168q0 179 73 269t220 90q150 0 150 -119q0 -123 -107 -123 q-67 0 -67 -103v-143q0 -158 -39.5 -228t-124.5 -122z" />
<glyph unicode="|" horiz-adv-x="535" d="M399 -332q0 -80 -26.5 -111.5t-112.5 -31.5q-70 0 -97.5 28t-27.5 115v1835q0 77 25 109.5t110 32.5q82 0 105.5 -35t23.5 -107v-1835z" />
<glyph unicode="}" horiz-adv-x="723" d="M393 674q-82 38 -123 111t-41 245v135q0 109 -79 109q-95 0 -95 125q0 117 142 117q150 0 225.5 -90.5t75.5 -270.5v-164q0 -182 90 -196q88 -15 88 -121q0 -56 -25.5 -83t-81.5 -42q-26 -8 -48.5 -53.5t-22.5 -133.5v-167q0 -180 -73.5 -269.5t-219.5 -89.5 q-150 0 -150 119q0 123 107 123q67 0 67 102v144q0 162 42 232.5t122 117.5z" />
<glyph unicode="~" horiz-adv-x="1231" d="M786 311q-66 0 -159 57q-138 85 -185 85q-45 0 -73 -52q-35 -71 -111 -71q-52 0 -91.5 34.5t-39.5 84.5q0 92 85 178t237 86q91 0 202 -66l92 -57q28 -17 58 -17q19 0 29.5 8t25.5 42q38 69 115 69q53 0 93 -30.5t40 -83.5q0 -82 -85 -174.5t-233 -92.5z" />
<glyph unicode="&#xa1;" horiz-adv-x="580" d="M289 1067q72 0 114.5 -43t42.5 -113q0 -71 -42.5 -113t-114.5 -42q-71 0 -113.5 44.5t-42.5 110.5q0 67 43.5 111.5t112.5 44.5zM152 526q0 131 139 131q137 0 137 -131v-764q0 -129 -137 -129q-139 0 -139 129v764z" />
<glyph unicode="&#xa2;" d="M715 811v-578q38 16 67 39q49 37 92 37q51 0 88 -41.5t37 -81.5q0 -71 -92.5 -128t-191.5 -70v-117q0 -74 -21.5 -91.5t-72.5 -17.5q-56 0 -74.5 20.5t-18.5 88.5v115q-205 24 -314.5 168t-109.5 372q0 223 111.5 363t312.5 170v100q0 59 22 82t75 23q51 0 70.5 -23 t19.5 -82v-102q142 -26 213 -73t71 -114q0 -46 -38.5 -91.5t-86.5 -45.5q-54 0 -108 43q-28 24 -51 35zM528 223v600q-72 -24 -107.5 -98t-35.5 -199q0 -123 35.5 -199t107.5 -104z" />
<glyph unicode="&#xa3;" d="M571 567q7 -33 7 -71q0 -83 -34 -145t-102 -103h441q71 0 102 -27t31 -92q0 -129 -139 -129h-594q-150 0 -150 133q0 61 81 149q91 99 91 212q0 31 -8 73h-70q-71 0 -105 26.5t-34 94.5q0 66 34 91.5t105 25.5h2q-36 123 -36 186q0 188 126.5 305t329.5 117 q144 0 259.5 -73t115.5 -154q0 -48 -43.5 -92.5t-87.5 -44.5q-38 0 -97 50q-82 68 -151 68q-77 0 -124.5 -47t-47.5 -127q0 -94 45 -188h225q144 0 144 -117q0 -121 -144 -121h-172z" />
<glyph unicode="&#xa4;" horiz-adv-x="1085" d="M182 348q-41 86 -41 180q0 95 43 181l-51 51q-52 52 -52 98q0 47 44 89.5t87 42.5q45 0 97 -54l51 -51q88 43 181 43q90 0 180 -43l51 51q54 54 97 54q44 0 88 -42t44 -90q0 -47 -53 -98l-51 -51q43 -90 43 -181q0 -90 -43 -180l51 -49q54 -52 54 -102q0 -42 -42 -85 t-89 -43t-101 52l-51 49q-82 -41 -178 -41q-95 0 -181 41l-49 -49q-52 -52 -100 -52t-89.5 43t-41.5 86q0 46 53 101zM541 348q75 0 127.5 53t52.5 127q0 75 -52.5 128t-127.5 53q-76 0 -128.5 -52.5t-52.5 -128.5q0 -74 52.5 -127t128.5 -53z" />
<glyph unicode="&#xa5;" d="M686 236v-138q0 -121 -145 -121q-73 0 -105.5 26.5t-32.5 94.5v138h-202q-77 0 -102 24.5t-25 77.5t24.5 75.5t102.5 22.5h202v133h-202q-71 0 -99 23t-28 80q0 53 24.5 75.5t102.5 22.5h88q-100 142 -158.5 288t-58.5 236q0 64 29.5 92.5t113.5 28.5q63 0 89 -21t36 -81 q43 -252 211 -496q188 248 221 477q11 75 38.5 98t90.5 23q71 0 104 -28t33 -97q0 -84 -62 -225.5t-171 -294.5h100q76 0 101.5 -23t25.5 -75q0 -56 -28.5 -79.5t-98.5 -23.5h-219v-133h219q76 0 101.5 -23t25.5 -75t-26 -77t-101 -25h-219z" />
<glyph unicode="&#xa6;" horiz-adv-x="535" d="M399 928q0 -123 -133 -123q-131 0 -131 123v590q0 127 129 127q135 0 135 -127v-590zM399 -350q0 -125 -133 -125q-131 0 -131 125v592q0 123 129 123q135 0 135 -123v-592z" />
<glyph unicode="&#xa7;" horiz-adv-x="1018" d="M823 287q90 -84 90 -226q0 -167 -117.5 -272.5t-338.5 -105.5q-156 0 -271.5 61.5t-115.5 128.5q0 50 31 94.5t79 44.5q47 0 96 -28q106 -60 193 -60q83 0 124.5 31t41.5 92q0 48 -37 83.5t-158 86.5q-222 96 -287 170t-65 195q0 144 139 243q-104 72 -104 246 q0 148 111 249t307 101q131 0 244.5 -46t113.5 -128q0 -53 -35.5 -98t-87.5 -45q-35 0 -106 41q-62 35 -131 35q-65 0 -101.5 -30.5t-36.5 -72.5q0 -75 136 -129q228 -91 320.5 -174.5t92.5 -232.5q0 -144 -127 -254zM424 719q-59 -41 -59 -115q0 -78 129 -131 q115 -49 141 -65q43 44 43 110q0 95 -111 139z" />
<glyph unicode="&#xa8;" horiz-adv-x="819" d="M631 1233q-62 0 -104 42.5t-42 102.5q0 61 42.5 105.5t103.5 44.5q59 0 103 -45t44 -105q0 -61 -44.5 -103t-102.5 -42zM186 1233q-62 0 -103.5 41.5t-41.5 103.5t42.5 106t102.5 44q61 0 104.5 -46t43.5 -104q0 -59 -44 -102t-104 -43z" />
<glyph unicode="&#xa9;" horiz-adv-x="1589" d="M795 1409q292 0 502 -209.5t210 -503.5q0 -293 -209.5 -502.5t-502.5 -209.5q-294 0 -503.5 209.5t-209.5 502.5q0 294 210 503.5t503 209.5zM797 129q234 0 401.5 167.5t167.5 401.5t-167.5 402t-401.5 168t-402 -168t-168 -402t168 -401.5t402 -167.5zM803 289 q-160 0 -273.5 109t-113.5 300q0 172 109.5 291t293.5 119q108 0 194.5 -52t86.5 -104q0 -33 -28 -66.5t-60 -33.5q-42 0 -84 33q-50 39 -109 39q-96 0 -144 -56.5t-48 -169.5t49 -169t147 -56q42 0 107 39q52 31 84 31t59 -30t27 -64q0 -56 -93.5 -108t-203.5 -52z" />
<glyph unicode="&#xaa;" horiz-adv-x="895" d="M776 766q0 -76 -108 -76q-107 0 -107 70v18q-35 -44 -88.5 -66t-124.5 -22q-123 0 -202.5 96.5t-79.5 266.5q0 162 88 261t221 99q58 0 104.5 -23t81.5 -69v22q0 70 111 70q104 0 104 -78v-569zM561 1100q0 61 -35.5 100t-101.5 39q-70 0 -104.5 -46.5t-34.5 -139.5 q0 -95 34.5 -142t104.5 -47q66 0 101.5 38t35.5 95v103z" />
<glyph unicode="&#xab;" horiz-adv-x="1391" d="M379 547l309 -240q49 -48 49 -96q0 -37 -40 -76t-83 -39q-57 0 -102 41l-381 314q-51 42 -51 100q0 52 51 94l387 316q53 43 94 43q42 0 83.5 -37t41.5 -82q0 -49 -49 -90zM1006 547l309 -240q51 -48 51 -96q0 -38 -41 -76.5t-84 -38.5q-55 0 -102 41l-381 314 q-49 40 -49 100q0 54 49 94l387 316q53 43 94 43q44 0 85.5 -37.5t41.5 -81.5q0 -49 -51 -90z" />
<glyph unicode="&#xac;" horiz-adv-x="1274" d="M891 569h-631q-139 0 -139 131q0 119 139 119h752q85 0 113 -26.5t28 -92.5v-383q0 -129 -131 -129q-75 0 -103 32t-28 97v252z" />
<glyph unicode="&#xad;" horiz-adv-x="756" d="M571 420h-387q-137 0 -137 129t137 129h387q140 0 140 -129t-140 -129z" />
<glyph unicode="&#xae;" horiz-adv-x="1589" d="M795 1409q292 0 502 -209.5t210 -503.5q0 -293 -209.5 -502.5t-502.5 -209.5q-294 0 -503.5 209.5t-209.5 502.5q0 294 210 503.5t503 209.5zM797 129q234 0 401.5 167.5t167.5 401.5t-167.5 402t-401.5 168t-402 -168t-168 -402t168 -401.5t402 -167.5zM698 598v-221 q0 -74 -92 -74q-96 0 -96 74v592q0 125 139 125h148q151 0 227 -61t76 -183q0 -70 -46 -126t-132 -73q92 -21 134 -116.5t42 -155.5q0 -32 -33 -54t-90 -22t-72 64q-34 138 -68.5 184.5t-99.5 46.5h-37zM698 948v-209h78q133 0 133 107q0 102 -125 102h-86z" />
<glyph unicode="&#xaf;" horiz-adv-x="1024" d="M1018 1556h-1012q-98 0 -98 125q0 119 98 119h1012q98 0 98 -119q0 -125 -98 -125z" />
<glyph unicode="&#xb0;" horiz-adv-x="737" d="M369 1413q127 0 217 -90t90 -217t-90 -217t-217 -90t-217.5 89.5t-90.5 217.5t90.5 217.5t217.5 89.5zM369 1004q43 0 72.5 29.5t29.5 72.5t-29.5 72.5t-72.5 29.5q-44 0 -73.5 -29.5t-29.5 -72.5t29.5 -72.5t73.5 -29.5z" />
<glyph unicode="&#xb1;" horiz-adv-x="1274" d="M768 571v-135q0 -127 -131 -127t-131 127v135h-246q-139 0 -139 123q0 127 139 127h246v125q0 66 29.5 96.5t101.5 30.5t101.5 -30.5t29.5 -96.5v-125h244q141 0 141 -127q0 -123 -141 -123h-244zM1012 0h-752q-139 0 -139 123q0 127 139 127h752q141 0 141 -127 q0 -123 -141 -123z" />
<glyph unicode="&#xb2;" horiz-adv-x="791" d="M332 758h250q57 0 79.5 -22.5t22.5 -73.5t-22.5 -72t-79.5 -21h-312q-159 0 -159 146q0 83 58 148.5t163 133.5q93 61 118 93.5t25 66.5q0 25 -16.5 47.5t-48.5 22.5q-45 0 -111 -45q-52 -35 -82 -35t-57 32.5t-27 69.5q0 56 92.5 110t184.5 54q137 0 209.5 -67 t72.5 -191q0 -80 -57 -152.5t-170 -138.5q-124 -74 -133 -106z" />
<glyph unicode="&#xb3;" horiz-adv-x="791" d="M422 1210h-193q-55 0 -73.5 20.5t-18.5 67.5q0 95 92 95h326q54 0 87.5 -30.5t33.5 -82.5q0 -62 -39 -92l-135 -123q94 -17 141 -75.5t47 -158.5q0 -118 -86.5 -204t-232.5 -86q-120 0 -193.5 45.5t-73.5 93.5q0 35 27.5 66.5t56.5 31.5q25 0 68 -28q60 -39 113 -39 q104 0 104 114q0 99 -125 99q-96 0 -96 77q0 33 49 91z" />
<glyph unicode="&#xb4;" horiz-adv-x="532" d="M465 1405l-197 -139q-55 -39 -100 -39q-39 0 -73 38t-34 74q0 59 64 109l176 135q59 45 111 45q43 0 80.5 -38.5t37.5 -88.5t-65 -96z" />
<glyph unicode="&#xb5;" horiz-adv-x="1178" d="M416 84v-375q0 -110 -142 -110q-78 0 -106.5 27t-28.5 81v1249q0 111 140 111q76 0 106.5 -25.5t30.5 -85.5v-507q0 -88 47 -148.5t135 -60.5q83 0 124.5 45.5t41.5 136.5v534q0 111 143 111q78 0 106.5 -27.5t28.5 -83.5v-870q0 -109 -143 -109q-135 0 -135 109v4 q-56 -104 -170 -104q-116 0 -178 98z" />
<glyph unicode="&#xb6;" horiz-adv-x="1319" d="M1067 1167q2 -124 2 -628v-594q0 -65 -25.5 -98t-93.5 -33q-64 0 -92.5 27t-28.5 104v1220h-196v-1220q0 -77 -29 -104t-90 -27q-69 0 -94 33t-25 98v817q-158 15 -240.5 100.5t-82.5 216.5q0 150 88 237t241 87h729q140 0 140 -117q0 -119 -140 -119h-63z" />
<glyph unicode="&#xb7;" horiz-adv-x="541" d="M268 475q-75 0 -120.5 46.5t-45.5 121.5q0 77 44.5 123.5t121.5 46.5q75 0 122.5 -48t47.5 -122q0 -73 -48 -120.5t-122 -47.5z" />
<glyph unicode="&#xb8;" horiz-adv-x="885" d="M391 0h123l-65 -82q24 8 53 8q89 0 133.5 -42.5t44.5 -127.5q0 -96 -69.5 -155.5t-188.5 -59.5q-205 0 -205 92q0 32 18.5 56t49.5 24q20 0 59 -14q28 -10 66 -10q67 0 67 61q0 51 -65 51h-29q-84 0 -84 58q0 35 33 75z" />
<glyph unicode="&#xb9;" horiz-adv-x="791" d="M295 1200l-41 -24q-51 -31 -90 -31q-25 0 -47.5 26.5t-22.5 55.5q0 47 60 80l143 77q54 29 104 29q95 0 95 -100v-574h69q53 0 77 -15.5t24 -66.5q0 -53 -24.5 -70.5t-78.5 -17.5h-350q-54 0 -78 16.5t-24 69.5q0 51 24 67.5t78 16.5h82v461z" />
<glyph unicode="&#xba;" horiz-adv-x="834" d="M436 690q-174 0 -273.5 101.5t-99.5 263.5q0 160 102 259t271 99q177 0 276 -98.5t99 -259.5q0 -163 -100 -264t-275 -101zM434 1239q-76 0 -113.5 -46t-37.5 -138q0 -96 37.5 -143.5t113.5 -47.5q77 0 115.5 47.5t38.5 143.5q0 92 -38.5 138t-115.5 46z" />
<glyph unicode="&#xbb;" horiz-adv-x="1391" d="M447 553l-274 221l-36 28q-43 37 -43 89q0 35 40 75t83 40q54 0 105 -41l378 -314q52 -43 52 -100q0 -51 -52 -94l-385 -316q-52 -43 -94 -43t-84.5 36.5t-42.5 82.5q0 49 51 90zM942 141q-42 -43 -92 -43q-44 0 -85.5 37t-41.5 82q0 49 49 90l303 246l-284 229l-34 30 q-32 28 -34 79q0 33 40 74t83 41q55 0 102 -41l381 -314q51 -42 51 -100q0 -52 -51 -94z" />
<glyph unicode="&#xbc;" horiz-adv-x="1923" d="M295 1200l-41 -24q-51 -31 -90 -31q-25 0 -47.5 26.5t-22.5 55.5q0 47 60 80l143 77q54 29 104 29q95 0 95 -100v-574h69q53 0 77 -15.5t24 -66.5q0 -53 -24.5 -70.5t-78.5 -17.5h-350q-54 0 -78 16.5t-24 69.5q0 51 24 67.5t78 16.5h82v461zM1445 1251l-791 -1194 q-50 -75 -96 -75t-81.5 29.5t-35.5 72.5q0 35 29 74l801 1206q34 51 86 51q54 0 83.5 -28t29.5 -68q0 -32 -25 -68zM1736 144v-61q0 -98 -101 -98q-60 0 -82 24t-22 74v61h-285q-59 0 -96 35t-37 96q0 42 23 88l208 412q33 66 82 66q45 0 76 -23t31 -59q0 -38 -27 -84 l-178 -350h203v233q0 48 22 69t82 21q101 0 101 -90v-231h26q57 0 78 -19.5t21 -68.5q0 -54 -21 -74.5t-78 -20.5h-26z" />
<glyph unicode="&#xbd;" horiz-adv-x="1896" d="M295 1200l-41 -24q-51 -31 -90 -31q-25 0 -47.5 26.5t-22.5 55.5q0 47 60 80l143 77q54 29 104 29q95 0 95 -100v-574h69q53 0 77 -15.5t24 -66.5q0 -53 -24.5 -70.5t-78.5 -17.5h-350q-54 0 -78 16.5t-24 69.5q0 51 24 67.5t78 16.5h82v461zM1444 1250l-791 -1194 q-50 -75 -96 -75t-81.5 29.5t-35.5 72.5q0 35 29 74l801 1206q34 51 86 51q54 0 83.5 -28t29.5 -68q0 -32 -25 -68zM1459 190h250q57 0 79.5 -22.5t22.5 -73.5t-22.5 -72t-79.5 -21h-312q-159 0 -159 146q0 83 58 148.5t163 133.5q93 61 118 93.5t25 66.5q0 25 -16.5 47.5 t-48.5 22.5q-45 0 -111 -45q-52 -35 -82 -35t-57 32.5t-27 69.5q0 56 92.5 110t184.5 54q137 0 209.5 -67t72.5 -191q0 -80 -57 -152.5t-170 -138.5q-124 -74 -133 -106z" />
<glyph unicode="&#xbe;" horiz-adv-x="1888" d="M422 1210h-193q-55 0 -73.5 20.5t-18.5 67.5q0 95 92 95h326q54 0 87.5 -30.5t33.5 -82.5q0 -62 -39 -92l-135 -123q94 -17 141 -75.5t47 -158.5q0 -118 -86.5 -204t-232.5 -86q-120 0 -193.5 45.5t-73.5 93.5q0 35 27.5 66.5t56.5 31.5q25 0 68 -28q60 -39 113 -39 q104 0 104 114q0 99 -125 99q-96 0 -96 77q0 33 49 91zM1447 1250l-791 -1194q-50 -75 -96 -75t-81.5 29.5t-35.5 72.5q0 35 29 74l801 1206q34 51 86 51q54 0 83.5 -28t29.5 -68q0 -32 -25 -68zM1734 146v-61q0 -98 -101 -98q-60 0 -82 24t-22 74v61h-285q-59 0 -96 35 t-37 96q0 42 23 88l208 412q33 66 82 66q45 0 76 -23t31 -59q0 -38 -27 -84l-178 -350h203v233q0 48 22 69t82 21q101 0 101 -90v-231h26q57 0 78 -19.5t21 -68.5q0 -54 -21 -74.5t-78 -20.5h-26z" />
<glyph unicode="&#xbf;" horiz-adv-x="903" d="M535 1067q72 0 114.5 -43t42.5 -113q0 -71 -42.5 -113t-114.5 -42q-69 0 -112.5 43t-43.5 112t44.5 112.5t111.5 43.5zM399 520v23q0 114 140 114q139 0 139 -114v-17q0 -137 -37.5 -204.5t-165.5 -147.5q-87 -54 -112 -92.5t-25 -83.5q0 -57 37.5 -91t97.5 -34 q75 0 166 64q58 42 74 49.5t43 7.5q45 0 85 -40t40 -89q0 -82 -124.5 -160t-297.5 -78q-189 0 -294.5 97t-105.5 260q0 120 53 204t177 158q74 42 92 78.5t18 95.5z" />
<glyph unicode="&#xc0;" horiz-adv-x="1290" d="M891 367h-492q-26 -87 -43 -155q-43 -167 -66 -201t-83 -34q-78 0 -124 28t-46 71q0 69 87.5 340.5t176 500t140 338t91.5 135t117 25.5h2q101 0 156 -63t250.5 -614.5t195.5 -645.5q0 -54 -48.5 -84.5t-125.5 -30.5q-61 0 -80.5 44t-89.5 288zM819 612q-78 249 -172 484 q-139 -375 -170 -484h342zM608 1853l177 -135q63 -48 63 -109q0 -38 -34 -75t-73 -37q-47 0 -100 39l-196 139q-66 47 -66 96q0 51 38 89t81 38q53 0 110 -45z" />
<glyph unicode="&#xc1;" horiz-adv-x="1290" d="M891 367h-492q-26 -87 -43 -155q-43 -167 -66 -201t-83 -34q-78 0 -124 28t-46 71q0 69 87.5 340.5t176 500t140 338t91.5 135t117 25.5h2q101 0 156 -63t250.5 -614.5t195.5 -645.5q0 -54 -48.5 -84.5t-125.5 -30.5q-61 0 -80.5 44t-89.5 288zM819 612q-78 249 -172 484 q-139 -375 -170 -484h342zM840 1675l-197 -139q-55 -39 -100 -39q-39 0 -73 38t-34 74q0 59 64 109l176 135q59 45 111 45q43 0 80.5 -38.5t37.5 -88.5t-65 -96z" />
<glyph unicode="&#xc2;" horiz-adv-x="1290" d="M891 367h-492q-26 -87 -43 -155q-43 -167 -66 -201t-83 -34q-78 0 -124 28t-46 71q0 69 87.5 340.5t176 500t140 338t91.5 135t117 25.5h2q101 0 156 -63t250.5 -614.5t195.5 -645.5q0 -54 -48.5 -84.5t-125.5 -30.5q-61 0 -80.5 44t-89.5 288zM819 612q-78 249 -172 484 q-139 -375 -170 -484h342zM479 1525q-36 -24 -78 -24q-41 0 -75 36.5t-34 80.5q0 57 56 92l182 112q57 35 113 35q54 0 112 -35l183 -112q55 -34 55 -92q0 -46 -34.5 -81.5t-74.5 -35.5t-78 24l-163 109z" />
<glyph unicode="&#xc3;" horiz-adv-x="1290" d="M891 367h-492q-26 -87 -43 -155q-43 -167 -66 -201t-83 -34q-78 0 -124 28t-46 71q0 69 87.5 340.5t176 500t140 338t91.5 135t117 25.5h2q101 0 156 -63t250.5 -614.5t195.5 -645.5q0 -54 -48.5 -84.5t-125.5 -30.5q-61 0 -80.5 44t-89.5 288zM819 612q-78 249 -172 484 q-139 -375 -170 -484h342zM518 1597q-41 0 -70 -41q-37 -55 -84 -55q-32 0 -62 24.5t-30 65.5q0 72 71 137.5t165 65.5q70 0 137 -39q79 -49 121 -49q40 0 69 41q25 34 40.5 44.5t43.5 10.5q32 0 62 -24.5t30 -65.5q0 -71 -69.5 -137t-165.5 -66q-73 0 -137 39 q-80 49 -121 49z" />
<glyph unicode="&#xc4;" horiz-adv-x="1290" d="M891 367h-492q-26 -87 -43 -155q-43 -167 -66 -201t-83 -34q-78 0 -124 28t-46 71q0 69 87.5 340.5t176 500t140 338t91.5 135t117 25.5h2q101 0 156 -63t250.5 -614.5t195.5 -645.5q0 -54 -48.5 -84.5t-125.5 -30.5q-61 0 -80.5 44t-89.5 288zM819 612q-78 249 -172 484 q-139 -375 -170 -484h342zM858 1503q-62 0 -104 42.5t-42 102.5q0 61 42.5 105.5t103.5 44.5q59 0 103 -45t44 -105q0 -61 -44.5 -103t-102.5 -42zM413 1503q-62 0 -103.5 41.5t-41.5 103.5t42.5 106t102.5 44q61 0 104.5 -46t43.5 -104q0 -59 -44 -102t-104 -43z" />
<glyph unicode="&#xc5;" horiz-adv-x="1290" d="M819 1329q67 -103 250.5 -627.5t183.5 -609.5q0 -54 -48.5 -84.5t-125.5 -30.5q-61 0 -80.5 44t-89.5 288l-18 58h-492q-26 -87 -43 -155q-43 -167 -66 -201t-83 -34q-78 0 -124 28t-46 71q0 76 110.5 410t207.5 569.5t118 265.5q-78 73 -78 182q0 102 73 175t175 73 t175 -73t73 -175q0 -101 -72 -174zM643 1409q38 0 66 28t28 66t-28 66t-66 28t-66 -28t-28 -66t28 -66t66 -28zM819 612q-78 249 -172 484q-139 -375 -170 -484h342z" />
<glyph unicode="&#xc6;" horiz-adv-x="1831" d="M893 367h-475l-137 -239q-59 -107 -83 -132t-71 -25q-72 0 -115 43.5t-43 100.5q0 65 107 242q177 291 408.5 629t279 372.5t154.5 34.5h681q86 0 118 -25.5t32 -101.5q0 -86 -37 -108.5t-113 -22.5h-389q-34 0 -34 -39v-242h358q74 0 114 -21.5t40 -103.5 q0 -74 -30 -103.5t-124 -29.5h-358v-303q0 -35 28 -35h389q82 0 119 -25t37 -102t-32.5 -104t-123.5 -27h-493q-96 0 -151.5 49.5t-55.5 143.5v174zM893 625v518h-4l-324 -518h328z" />
<glyph unicode="&#xc7;" horiz-adv-x="1255" d="M772 -18l-49 -64q24 8 53 8q89 0 133.5 -42.5t44.5 -127.5q0 -96 -69.5 -155.5t-188.5 -59.5q-204 0 -204 92q0 32 18 56t49 24q20 0 59 -14q28 -10 66 -10q68 0 68 61q0 51 -66 51h-29q-84 0 -84 58q0 35 33 75l39 50q-264 23 -408.5 207t-144.5 489q0 346 176 539.5 t488 193.5q180 0 319 -68t139 -147q0 -48 -41.5 -95.5t-91.5 -47.5q-35 0 -98 39q-112 67 -233 67q-174 0 -274.5 -125t-100.5 -348q0 -213 96.5 -335t280.5 -122q119 0 252 85q48 30 79 30q45 0 84 -45.5t39 -87.5q0 -81 -139 -153.5t-295 -77.5z" />
<glyph unicode="&#xc8;" horiz-adv-x="1114" d="M442 850h375q74 0 114 -20.5t40 -100.5q0 -74 -30 -101.5t-124 -27.5h-375v-315q0 -35 29 -35h406q83 0 119 -23t36 -100q0 -75 -31 -101t-124 -26h-512q-94 0 -149.5 49.5t-55.5 143.5v991q0 104 54 156.5t163 52.5h506q86 0 117.5 -23.5t31.5 -99.5q0 -81 -33.5 -104 t-115.5 -23h-406q-35 0 -35 -39v-254zM571 1853l177 -135q63 -48 63 -109q0 -38 -34 -75t-73 -37q-47 0 -100 39l-196 139q-66 47 -66 96q0 51 38 89t81 38q53 0 110 -45z" />
<glyph unicode="&#xc9;" horiz-adv-x="1114" d="M442 850h375q74 0 114 -20.5t40 -100.5q0 -74 -30 -101.5t-124 -27.5h-375v-315q0 -35 29 -35h406q83 0 119 -23t36 -100q0 -75 -31 -101t-124 -26h-512q-94 0 -149.5 49.5t-55.5 143.5v991q0 104 54 156.5t163 52.5h506q86 0 117.5 -23.5t31.5 -99.5q0 -81 -33.5 -104 t-115.5 -23h-406q-35 0 -35 -39v-254zM803 1675l-197 -139q-55 -39 -100 -39q-39 0 -73 38t-34 74q0 59 64 109l176 135q59 45 111 45q43 0 80.5 -38.5t37.5 -88.5t-65 -96z" />
<glyph unicode="&#xca;" horiz-adv-x="1114" d="M442 850h375q74 0 114 -20.5t40 -100.5q0 -74 -30 -101.5t-124 -27.5h-375v-315q0 -35 29 -35h406q83 0 119 -23t36 -100q0 -75 -31 -101t-124 -26h-512q-94 0 -149.5 49.5t-55.5 143.5v991q0 104 54 156.5t163 52.5h506q86 0 117.5 -23.5t31.5 -99.5q0 -81 -33.5 -104 t-115.5 -23h-406q-35 0 -35 -39v-254zM443 1525q-36 -24 -78 -24q-41 0 -75 36.5t-34 80.5q0 57 56 92l182 112q57 35 113 35q54 0 112 -35l183 -112q55 -34 55 -92q0 -46 -34.5 -81.5t-74.5 -35.5t-78 24l-163 109z" />
<glyph unicode="&#xcb;" horiz-adv-x="1114" d="M442 850h375q74 0 114 -20.5t40 -100.5q0 -74 -30 -101.5t-124 -27.5h-375v-315q0 -35 29 -35h406q83 0 119 -23t36 -100q0 -75 -31 -101t-124 -26h-512q-94 0 -149.5 49.5t-55.5 143.5v991q0 104 54 156.5t163 52.5h506q86 0 117.5 -23.5t31.5 -99.5q0 -81 -33.5 -104 t-115.5 -23h-406q-35 0 -35 -39v-254zM821 1503q-62 0 -104 42.5t-42 102.5q0 61 42.5 105.5t103.5 44.5q59 0 103 -45t44 -105q0 -61 -44.5 -103t-102.5 -42zM376 1503q-62 0 -103.5 41.5t-41.5 103.5t42.5 106t102.5 44q61 0 104.5 -46t43.5 -104q0 -59 -44 -102t-104 -43 z" />
<glyph unicode="&#xcc;" horiz-adv-x="602" d="M442 96q0 -119 -145 -119q-72 0 -104.5 26t-32.5 93v1204q0 61 27.5 88t113.5 27t113.5 -28t27.5 -87v-1204zM268 1853l177 -135q63 -48 63 -109q0 -38 -34 -75t-73 -37q-47 0 -100 39l-196 139q-66 47 -66 96q0 51 38 89t81 38q53 0 110 -45z" />
<glyph unicode="&#xcd;" horiz-adv-x="602" d="M442 96q0 -119 -145 -119q-72 0 -104.5 26t-32.5 93v1204q0 61 27.5 88t113.5 27t113.5 -28t27.5 -87v-1204zM500 1675l-197 -139q-55 -39 -100 -39q-39 0 -73 38t-34 74q0 59 64 109l176 135q59 45 111 45q43 0 80.5 -38.5t37.5 -88.5t-65 -96z" />
<glyph unicode="&#xce;" horiz-adv-x="602" d="M442 96q0 -119 -145 -119q-72 0 -104.5 26t-32.5 93v1204q0 61 27.5 88t113.5 27t113.5 -28t27.5 -87v-1204zM141 1525q-36 -24 -78 -24q-41 0 -75 36.5t-34 80.5q0 57 56 92l182 112q57 35 113 35q54 0 112 -35l183 -112q55 -34 55 -92q0 -46 -34.5 -81.5t-74.5 -35.5 t-78 24l-163 109z" />
<glyph unicode="&#xcf;" horiz-adv-x="602" d="M442 96q0 -119 -145 -119q-72 0 -104.5 26t-32.5 93v1204q0 61 27.5 88t113.5 27t113.5 -28t27.5 -87v-1204zM519 1503q-62 0 -104 42.5t-42 102.5q0 61 42.5 105.5t103.5 44.5q59 0 103 -45t44 -105q0 -61 -44.5 -103t-102.5 -42zM74 1503q-62 0 -103.5 41.5 t-41.5 103.5t42.5 106t102.5 44q61 0 104.5 -46t43.5 -104q0 -59 -44 -102t-104 -43z" />
<glyph unicode="&#xd0;" horiz-adv-x="1421" d="M160 594h-58q-74 0 -103.5 23t-29.5 104q0 62 24.5 90.5t108.5 28.5h58v334q0 219 225 219h285q305 0 482 -187.5t177 -494.5q0 -328 -174.5 -519.5t-484.5 -191.5h-305q-205 0 -205 193v401zM442 594v-301q0 -35 29 -35h178q191 0 294.5 118.5t103.5 325.5 q0 197 -105 315t-293 118h-168q-39 0 -39 -43v-252h189q78 0 109.5 -23t31.5 -96q0 -71 -33.5 -99t-107.5 -28h-189z" />
<glyph unicode="&#xd1;" horiz-adv-x="1432" d="M1272 129q0 -152 -129 -152q-58 0 -93 20.5t-67 72.5l-555 845v-821q0 -67 -31.5 -92t-99.5 -25q-72 0 -104.5 25t-32.5 92v1147q0 98 29.5 136t105.5 38q56 0 85 -18.5t62 -67.5l562 -848v813q0 68 28.5 94.5t102.5 26.5q77 0 107 -26.5t30 -94.5v-1165zM596 1597 q-41 0 -70 -41q-37 -55 -84 -55q-32 0 -62 24.5t-30 65.5q0 72 71 137.5t165 65.5q70 0 137 -39q79 -49 121 -49q40 0 69 41q25 34 40.5 44.5t43.5 10.5q32 0 62 -24.5t30 -65.5q0 -71 -69.5 -137t-165.5 -66q-73 0 -137 39q-80 49 -121 49z" />
<glyph unicode="&#xd2;" horiz-adv-x="1466" d="M737 -20q-309 0 -477 203t-168 517q0 315 174.5 514t470.5 199q291 0 464 -195.5t173 -517.5q0 -318 -174 -519t-463 -201zM737 1161q-161 0 -261.5 -123t-100.5 -338q0 -216 97 -342.5t265 -126.5q163 0 259 127t96 342q0 205 -93.5 333t-261.5 128zM702 1853l177 -135 q63 -48 63 -109q0 -38 -34 -75t-73 -37q-47 0 -100 39l-196 139q-66 47 -66 96q0 51 38 89t81 38q53 0 110 -45z" />
<glyph unicode="&#xd3;" horiz-adv-x="1466" d="M737 -20q-309 0 -477 203t-168 517q0 315 174.5 514t470.5 199q291 0 464 -195.5t173 -517.5q0 -318 -174 -519t-463 -201zM737 1161q-161 0 -261.5 -123t-100.5 -338q0 -216 97 -342.5t265 -126.5q163 0 259 127t96 342q0 205 -93.5 333t-261.5 128zM934 1675l-197 -139 q-55 -39 -100 -39q-39 0 -73 38t-34 74q0 59 64 109l176 135q59 45 111 45q43 0 80.5 -38.5t37.5 -88.5t-65 -96z" />
<glyph unicode="&#xd4;" horiz-adv-x="1466" d="M737 -20q-309 0 -477 203t-168 517q0 315 174.5 514t470.5 199q291 0 464 -195.5t173 -517.5q0 -318 -174 -519t-463 -201zM737 1161q-161 0 -261.5 -123t-100.5 -338q0 -216 97 -342.5t265 -126.5q163 0 259 127t96 342q0 205 -93.5 333t-261.5 128zM574 1525 q-36 -24 -78 -24q-41 0 -75 36.5t-34 80.5q0 57 56 92l182 112q57 35 113 35q54 0 112 -35l183 -112q55 -34 55 -92q0 -46 -34.5 -81.5t-74.5 -35.5t-78 24l-163 109z" />
<glyph unicode="&#xd5;" horiz-adv-x="1466" d="M737 -20q-309 0 -477 203t-168 517q0 315 174.5 514t470.5 199q291 0 464 -195.5t173 -517.5q0 -318 -174 -519t-463 -201zM737 1161q-161 0 -261.5 -123t-100.5 -338q0 -216 97 -342.5t265 -126.5q163 0 259 127t96 342q0 205 -93.5 333t-261.5 128zM613 1597 q-41 0 -70 -41q-37 -55 -84 -55q-32 0 -62 24.5t-30 65.5q0 72 71 137.5t165 65.5q70 0 137 -39q79 -49 121 -49q40 0 69 41q25 34 40.5 44.5t43.5 10.5q32 0 62 -24.5t30 -65.5q0 -71 -69.5 -137t-165.5 -66q-73 0 -137 39q-80 49 -121 49z" />
<glyph unicode="&#xd6;" horiz-adv-x="1466" d="M737 -20q-309 0 -477 203t-168 517q0 315 174.5 514t470.5 199q291 0 464 -195.5t173 -517.5q0 -318 -174 -519t-463 -201zM737 1161q-161 0 -261.5 -123t-100.5 -338q0 -216 97 -342.5t265 -126.5q163 0 259 127t96 342q0 205 -93.5 333t-261.5 128zM953 1503 q-62 0 -104 42.5t-42 102.5q0 61 42.5 105.5t103.5 44.5q59 0 103 -45t44 -105q0 -61 -44.5 -103t-102.5 -42zM508 1503q-62 0 -103.5 41.5t-41.5 103.5t42.5 106t102.5 44q61 0 104.5 -46t43.5 -104q0 -59 -44 -102t-104 -43z" />
<glyph unicode="&#xd7;" horiz-adv-x="1274" d="M1012 332q57 -59 57 -94q0 -39 -48.5 -88.5t-90.5 -49.5q-40 0 -94 56l-199 204l-199 -206q-52 -54 -92 -54q-41 0 -91 47t-50 93q0 37 55 92l203 205l-201 206q-57 58 -57 93q0 41 47.5 91t91.5 50q35 0 94 -57l199 -205l209 215q46 47 86 47q42 0 89.5 -50.5 t47.5 -90.5q0 -35 -57 -95l-199 -204z" />
<glyph unicode="&#xd8;" horiz-adv-x="1466" d="M459 33q-33 -51 -39 -64q-10 -13 -19 -28q-36 -56 -84 -56q-51 0 -90 32t-39 77q0 40 35 94q28 42 49 78q-180 204 -180 534q0 315 174.5 514t470.5 199q146 0 273 -55q78 132 103.5 149t55.5 17q56 0 91.5 -31t35.5 -70q0 -41 -53 -125l-47 -75q178 -198 178 -523 q0 -318 -174 -519t-463 -201q-153 0 -278 53zM424 408l459 737q-67 29 -146 29q-168 0 -272.5 -126.5t-104.5 -347.5q0 -170 64 -292zM1047 981l-455 -735q66 -27 145 -27q173 0 271 131.5t98 349.5q0 160 -59 281z" />
<glyph unicode="&#xd9;" horiz-adv-x="1341" d="M1186 461q0 -223 -140 -352t-378 -129q-241 0 -376.5 127.5t-135.5 353.5v833q0 121 141 121t141 -121v-829q0 -234 230 -234q235 0 235 234v829q0 121 146 121q137 0 137 -121v-833zM637 1853l177 -135q63 -48 63 -109q0 -38 -34 -75t-73 -37q-47 0 -100 39l-196 139 q-66 47 -66 96q0 51 38 89t81 38q53 0 110 -45z" />
<glyph unicode="&#xda;" horiz-adv-x="1341" d="M1186 461q0 -223 -140 -352t-378 -129q-241 0 -376.5 127.5t-135.5 353.5v833q0 121 141 121t141 -121v-829q0 -234 230 -234q235 0 235 234v829q0 121 146 121q137 0 137 -121v-833zM868 1675l-197 -139q-55 -39 -100 -39q-39 0 -73 38t-34 74q0 59 64 109l176 135 q59 45 111 45q43 0 80.5 -38.5t37.5 -88.5t-65 -96z" />
<glyph unicode="&#xdb;" horiz-adv-x="1341" d="M1186 461q0 -223 -140 -352t-378 -129q-241 0 -376.5 127.5t-135.5 353.5v833q0 121 141 121t141 -121v-829q0 -234 230 -234q235 0 235 234v829q0 121 146 121q137 0 137 -121v-833zM508 1525q-36 -24 -78 -24q-41 0 -75 36.5t-34 80.5q0 57 56 92l182 112q57 35 113 35 q54 0 112 -35l183 -112q55 -34 55 -92q0 -46 -34.5 -81.5t-74.5 -35.5t-78 24l-163 109z" />
<glyph unicode="&#xdc;" horiz-adv-x="1341" d="M1186 461q0 -223 -140 -352t-378 -129q-241 0 -376.5 127.5t-135.5 353.5v833q0 121 141 121t141 -121v-829q0 -234 230 -234q235 0 235 234v829q0 121 146 121q137 0 137 -121v-833zM887 1503q-62 0 -104 42.5t-42 102.5q0 61 42.5 105.5t103.5 44.5q59 0 103 -45 t44 -105q0 -61 -44.5 -103t-102.5 -42zM442 1503q-62 0 -103.5 41.5t-41.5 103.5t42.5 106t102.5 44q61 0 104.5 -46t43.5 -104q0 -59 -44 -102t-104 -43z" />
<glyph unicode="&#xdd;" horiz-adv-x="1065" d="M680 532v-434q0 -121 -143 -121q-73 0 -106.5 26.5t-33.5 94.5v437q-146 150 -253 373t-107 386q0 65 30 93t111 28q71 0 100 -22.5t35 -79.5q32 -207 80.5 -325.5t147.5 -229.5q118 135 169 254.5t74 281.5q9 65 38 93t104 28q83 0 111 -27.5t28 -91.5q0 -172 -110 -384 t-275 -380zM721 1675l-197 -139q-55 -39 -100 -39q-39 0 -73 38t-34 74q0 59 64 109l176 135q59 45 111 45q43 0 80.5 -38.5t37.5 -88.5t-65 -96z" />
<glyph unicode="&#xde;" horiz-adv-x="1149" d="M442 96q0 -60 -36.5 -89.5t-108.5 -29.5q-69 0 -103 25t-34 92v1206q0 61 27.5 88t113.5 27t113.5 -28t27.5 -87v-122h172q221 0 345 -127.5t124 -343.5q0 -202 -133.5 -332.5t-349.5 -130.5h-158v-148zM442 494h166q84 0 138.5 63t54.5 150q0 101 -50 161t-141 60h-168 v-434z" />
<glyph unicode="&#xdf;" horiz-adv-x="1212" d="M854 803q136 -36 204 -128.5t68 -240.5q0 -199 -116.5 -324.5t-323.5 -125.5q-60 0 -135.5 25t-75.5 108q0 45 26 85t68 40q24 0 54 -11q28 -10 69 -10q154 0 154 217q0 98 -57 158.5t-156 60.5q-121 0 -121 119q0 51 28 84t74 33q66 0 108 56t42 161q0 84 -46.5 135 t-119.5 51q-87 0 -134.5 -61.5t-47.5 -169.5v-940q0 -131 -140 -131q-137 0 -137 131v950q0 206 123 333.5t336 127.5q203 0 324.5 -111.5t121.5 -294.5q0 -103 -51 -196.5t-139 -130.5z" />
<glyph unicode="&#xe0;" horiz-adv-x="1171" d="M1032 88q0 -58 -28 -84.5t-113 -26.5q-80 0 -107.5 24t-27.5 73v78q-42 -88 -113 -131.5t-170 -43.5q-190 0 -300 143t-110 404q0 242 113 392.5t303 150.5q97 0 166.5 -41t110.5 -123v58q0 55 29 80.5t112 25.5q78 0 106.5 -27.5t28.5 -85.5v-866zM756 598 q0 103 -52 167t-147 64q-107 0 -160 -76.5t-53 -228.5q0 -155 52 -232t157 -77q91 0 147 61.5t56 172.5v149zM518 1564l177 -135q63 -48 63 -109q0 -38 -34 -75t-73 -37q-47 0 -100 39l-196 139q-66 47 -66 96q0 51 38 89t81 38q53 0 110 -45z" />
<glyph unicode="&#xe1;" horiz-adv-x="1171" d="M1032 88q0 -58 -28 -84.5t-113 -26.5q-80 0 -107.5 24t-27.5 73v78q-42 -88 -113 -131.5t-170 -43.5q-190 0 -300 143t-110 404q0 242 113 392.5t303 150.5q97 0 166.5 -41t110.5 -123v58q0 55 29 80.5t112 25.5q78 0 106.5 -27.5t28.5 -85.5v-866zM756 598 q0 103 -52 167t-147 64q-107 0 -160 -76.5t-53 -228.5q0 -155 52 -232t157 -77q91 0 147 61.5t56 172.5v149zM750 1386l-197 -139q-55 -39 -100 -39q-39 0 -73 38t-34 74q0 59 64 109l176 135q59 45 111 45q43 0 80.5 -38.5t37.5 -88.5t-65 -96z" />
<glyph unicode="&#xe2;" horiz-adv-x="1171" d="M1032 88q0 -58 -28 -84.5t-113 -26.5q-80 0 -107.5 24t-27.5 73v78q-42 -88 -113 -131.5t-170 -43.5q-190 0 -300 143t-110 404q0 242 113 392.5t303 150.5q97 0 166.5 -41t110.5 -123v58q0 55 29 80.5t112 25.5q78 0 106.5 -27.5t28.5 -85.5v-866zM756 598 q0 103 -52 167t-147 64q-107 0 -160 -76.5t-53 -228.5q0 -155 52 -232t157 -77q91 0 147 61.5t56 172.5v149zM389 1236q-36 -24 -78 -24q-41 0 -75 36.5t-34 80.5q0 57 56 92l182 112q57 35 113 35q54 0 112 -35l183 -112q55 -34 55 -92q0 -46 -34.5 -81.5t-74.5 -35.5 t-78 24l-163 109z" />
<glyph unicode="&#xe3;" horiz-adv-x="1171" d="M1032 88q0 -58 -28 -84.5t-113 -26.5q-80 0 -107.5 24t-27.5 73v78q-42 -88 -113 -131.5t-170 -43.5q-190 0 -300 143t-110 404q0 242 113 392.5t303 150.5q97 0 166.5 -41t110.5 -123v58q0 55 29 80.5t112 25.5q78 0 106.5 -27.5t28.5 -85.5v-866zM756 598 q0 103 -52 167t-147 64q-107 0 -160 -76.5t-53 -228.5q0 -155 52 -232t157 -77q91 0 147 61.5t56 172.5v149zM428 1308q-41 0 -70 -41q-37 -55 -84 -55q-32 0 -62 24.5t-30 65.5q0 72 71 137.5t165 65.5q70 0 137 -39q79 -49 121 -49q40 0 69 41q25 34 40.5 44.5t43.5 10.5 q32 0 62 -24.5t30 -65.5q0 -71 -69.5 -137t-165.5 -66q-73 0 -137 39q-80 49 -121 49z" />
<glyph unicode="&#xe4;" horiz-adv-x="1171" d="M1032 88q0 -58 -28 -84.5t-113 -26.5q-80 0 -107.5 24t-27.5 73v78q-42 -88 -113 -131.5t-170 -43.5q-190 0 -300 143t-110 404q0 242 113 392.5t303 150.5q97 0 166.5 -41t110.5 -123v58q0 55 29 80.5t112 25.5q78 0 106.5 -27.5t28.5 -85.5v-866zM756 598 q0 103 -52 167t-147 64q-107 0 -160 -76.5t-53 -228.5q0 -155 52 -232t157 -77q91 0 147 61.5t56 172.5v149zM768 1214q-62 0 -104 42.5t-42 102.5q0 61 42.5 105.5t103.5 44.5q59 0 103 -45t44 -105q0 -61 -44.5 -103t-102.5 -42zM323 1214q-62 0 -103.5 41.5t-41.5 103.5 t42.5 106t102.5 44q61 0 104.5 -46t43.5 -104q0 -59 -44 -102t-104 -43z" />
<glyph unicode="&#xe5;" horiz-adv-x="1171" d="M1032 88q0 -58 -28 -84.5t-113 -26.5q-80 0 -107.5 24t-27.5 73v78q-42 -88 -113 -131.5t-170 -43.5q-190 0 -300 143t-110 404q0 242 113 392.5t303 150.5q97 0 166.5 -41t110.5 -123v58q0 55 29 80.5t112 25.5q78 0 106.5 -27.5t28.5 -85.5v-866zM756 598 q0 103 -52 167t-147 64q-107 0 -160 -76.5t-53 -228.5q0 -155 52 -232t157 -77q91 0 147 61.5t56 172.5v149zM547 1628q102 0 174.5 -73t72.5 -175q0 -103 -73 -175.5t-174 -72.5q-103 0 -175.5 72.5t-72.5 175.5q0 102 72.5 175t175.5 73zM547 1285q38 0 66 28.5t28 66.5 t-28 66t-66 28t-66.5 -28t-28.5 -66q0 -39 28 -67t67 -28z" />
<glyph unicode="&#xe6;" horiz-adv-x="1702" d="M942 430q13 -116 74 -173.5t170 -57.5q118 0 215 58q38 22 69 22q42 0 74.5 -35.5t32.5 -79.5q0 -75 -124.5 -131t-295.5 -56q-261 0 -377 203q-116 -203 -377 -203q-149 0 -245.5 89t-96.5 229q0 182 153 269q142 82 415 82q22 0 45 -1v27q0 86 -44.5 129t-133.5 43 q-85 0 -191 -56q-63 -34 -100 -34q-38 0 -65 37t-27 92q0 69 131 126.5t284 57.5q221 0 314 -141q137 141 325 141q219 0 342 -125t123 -348q0 -96 -37.5 -130t-111.5 -34h-541zM1360 633q-5 107 -55.5 161t-145.5 54q-97 0 -151.5 -54t-65.5 -161h418zM674 461 q-202 0 -268 -27.5t-66 -116.5q0 -53 34 -87.5t89 -34.5q100 0 155.5 75.5t55.5 190.5z" />
<glyph unicode="&#xe7;" horiz-adv-x="987" d="M573 -23l-43 -59q24 8 54 8q89 0 133.5 -42.5t44.5 -127.5q0 -96 -69.5 -155.5t-188.5 -59.5q-205 0 -205 92q0 32 18.5 56t49.5 24q20 0 59 -14q28 -10 66 -10q67 0 67 61q0 51 -65 51h-29q-84 0 -84 58q0 35 33 75l37 52q-183 29 -285.5 171t-102.5 369 q0 252 134.5 396.5t361.5 144.5q124 0 253.5 -52t129.5 -141q0 -47 -38 -94t-85 -47q-40 0 -94 37q-78 53 -158 53q-112 0 -167.5 -74.5t-55.5 -222.5q0 -152 55 -227.5t166 -75.5q77 0 160 49q57 35 88 35q51 0 89 -45.5t38 -87.5q0 -60 -107.5 -126.5t-259.5 -70.5z" />
<glyph unicode="&#xe8;" horiz-adv-x="1098" d="M346 424q12 -113 73 -169t171 -56q121 0 215 56q36 21 69 21q44 0 75.5 -35.5t31.5 -78.5q0 -75 -124 -130t-296 -55q-236 0 -367 140.5t-131 390.5q0 260 136.5 409.5t371.5 149.5q217 0 341 -127.5t124 -351.5q0 -96 -37.5 -130t-111.5 -34h-541zM764 627 q-5 110 -55.5 165.5t-145.5 55.5q-97 0 -151.5 -55.5t-65.5 -165.5h418zM526 1564l177 -135q63 -48 63 -109q0 -38 -34 -75t-73 -37q-47 0 -100 39l-196 139q-66 47 -66 96q0 51 38 89t81 38q53 0 110 -45z" />
<glyph unicode="&#xe9;" horiz-adv-x="1098" d="M346 424q12 -113 73 -169t171 -56q121 0 215 56q36 21 69 21q44 0 75.5 -35.5t31.5 -78.5q0 -75 -124 -130t-296 -55q-236 0 -367 140.5t-131 390.5q0 260 136.5 409.5t371.5 149.5q217 0 341 -127.5t124 -351.5q0 -96 -37.5 -130t-111.5 -34h-541zM764 627 q-5 110 -55.5 165.5t-145.5 55.5q-97 0 -151.5 -55.5t-65.5 -165.5h418zM770 1386l-197 -139q-55 -39 -100 -39q-39 0 -73 38t-34 74q0 59 64 109l176 135q59 45 111 45q43 0 80.5 -38.5t37.5 -88.5t-65 -96z" />
<glyph unicode="&#xea;" horiz-adv-x="1098" d="M346 424q12 -113 73 -169t171 -56q121 0 215 56q36 21 69 21q44 0 75.5 -35.5t31.5 -78.5q0 -75 -124 -130t-296 -55q-236 0 -367 140.5t-131 390.5q0 260 136.5 409.5t371.5 149.5q217 0 341 -127.5t124 -351.5q0 -96 -37.5 -130t-111.5 -34h-541zM764 627 q-5 110 -55.5 165.5t-145.5 55.5q-97 0 -151.5 -55.5t-65.5 -165.5h418zM398 1236q-36 -24 -78 -24q-41 0 -75 36.5t-34 80.5q0 57 56 92l182 112q57 35 113 35q54 0 112 -35l183 -112q55 -34 55 -92q0 -46 -34.5 -81.5t-74.5 -35.5t-78 24l-163 109z" />
<glyph unicode="&#xeb;" horiz-adv-x="1098" d="M346 424q12 -113 73 -169t171 -56q121 0 215 56q36 21 69 21q44 0 75.5 -35.5t31.5 -78.5q0 -75 -124 -130t-296 -55q-236 0 -367 140.5t-131 390.5q0 260 136.5 409.5t371.5 149.5q217 0 341 -127.5t124 -351.5q0 -96 -37.5 -130t-111.5 -34h-541zM764 627 q-5 110 -55.5 165.5t-145.5 55.5q-97 0 -151.5 -55.5t-65.5 -165.5h418zM781 1214q-62 0 -104 42.5t-42 102.5q0 61 42.5 105.5t103.5 44.5q59 0 103 -45t44 -105q0 -61 -44.5 -103t-102.5 -42zM336 1214q-62 0 -103.5 41.5t-41.5 103.5t42.5 106t102.5 44q61 0 104.5 -46 t43.5 -104q0 -59 -44 -102t-104 -43z" />
<glyph unicode="&#xec;" horiz-adv-x="555" d="M416 88q0 -111 -140 -111q-137 0 -137 111v873q0 52 28 79t112 27q137 0 137 -106v-873zM243 1564l177 -135q63 -48 63 -109q0 -38 -34 -75t-73 -37q-47 0 -100 39l-196 139q-66 47 -66 96q0 51 38 89t81 38q53 0 110 -45z" />
<glyph unicode="&#xed;" horiz-adv-x="555" d="M416 88q0 -111 -140 -111q-137 0 -137 111v873q0 52 28 79t112 27q137 0 137 -106v-873zM475 1386l-197 -139q-55 -39 -100 -39q-39 0 -73 38t-34 74q0 59 64 109l176 135q59 45 111 45q43 0 80.5 -38.5t37.5 -88.5t-65 -96z" />
<glyph unicode="&#xee;" horiz-adv-x="555" d="M416 88q0 -111 -140 -111q-137 0 -137 111v873q0 52 28 79t112 27q137 0 137 -106v-873zM116 1236q-36 -24 -78 -24q-41 0 -75 36.5t-34 80.5q0 57 56 92l182 112q57 35 113 35q54 0 112 -35l183 -112q55 -34 55 -92q0 -46 -34.5 -81.5t-74.5 -35.5t-78 24l-163 109z" />
<glyph unicode="&#xef;" horiz-adv-x="555" d="M416 88q0 -111 -140 -111q-137 0 -137 111v873q0 52 28 79t112 27q137 0 137 -106v-873zM495 1214q-62 0 -104 42.5t-42 102.5q0 61 42.5 105.5t103.5 44.5q59 0 103 -45t44 -105q0 -61 -44.5 -103t-102.5 -42zM50 1214q-62 0 -103.5 41.5t-41.5 103.5t42.5 106t102.5 44 q61 0 104.5 -46t43.5 -104q0 -59 -44 -102t-104 -43z" />
<glyph unicode="&#xf0;" horiz-adv-x="1130" d="M702 926q-73 141 -202 252l-146 -91q-42 -26 -69 -26q-41 0 -71 36t-30 79q0 47 52 77l90 54q-22 11 -47 21q-64 26 -81.5 41t-17.5 52q0 45 34.5 80t76.5 35q89 0 246 -90l102 63q44 27 80 27q34 0 69 -36t35 -77q0 -44 -39 -69l-69 -47q167 -140 250.5 -326t83.5 -418 q0 -272 -134.5 -427.5t-369.5 -155.5q-231 0 -356.5 136t-125.5 386q0 241 115 379.5t293 138.5q144 0 231 -94zM561 803q-109 0 -163 -75.5t-54 -225.5q0 -145 53 -217t160 -72q105 0 158 72t53 217q0 150 -52 225.5t-155 75.5z" />
<glyph unicode="&#xf1;" horiz-adv-x="1178" d="M1042 92q0 -115 -137 -115q-81 0 -110 29.5t-29 85.5v549q0 89 -43 138.5t-121 49.5q-93 0 -139.5 -59.5t-46.5 -177.5v-500q0 -115 -142 -115q-135 0 -135 115v864q0 58 31.5 84.5t110.5 26.5q77 0 106 -25t29 -79v-60q55 82 129 123t168 41q152 0 240.5 -102.5 t88.5 -292.5v-580zM467 1308q-41 0 -70 -41q-37 -55 -84 -55q-32 0 -62 24.5t-30 65.5q0 72 71 137.5t165 65.5q70 0 137 -39q79 -49 121 -49q40 0 69 41q25 34 40.5 44.5t43.5 10.5q32 0 62 -24.5t30 -65.5q0 -71 -69.5 -137t-165.5 -66q-73 0 -137 39q-80 49 -121 49z" />
<glyph unicode="&#xf2;" horiz-adv-x="1130" d="M565 -23q-226 0 -364 149.5t-138 395.5q0 251 138 397t364 146q229 0 365.5 -148t136.5 -395t-139.5 -396t-362.5 -149zM567 829q-107 0 -165 -80.5t-58 -226.5q0 -141 57.5 -225t163.5 -84t163.5 83.5t57.5 225.5q0 148 -56.5 227.5t-162.5 79.5zM526 1564l177 -135 q63 -48 63 -109q0 -38 -34 -75t-73 -37q-47 0 -100 39l-196 139q-66 47 -66 96q0 51 38 89t81 38q53 0 110 -45z" />
<glyph unicode="&#xf3;" horiz-adv-x="1130" d="M565 -23q-226 0 -364 149.5t-138 395.5q0 251 138 397t364 146q229 0 365.5 -148t136.5 -395t-139.5 -396t-362.5 -149zM567 829q-107 0 -165 -80.5t-58 -226.5q0 -141 57.5 -225t163.5 -84t163.5 83.5t57.5 225.5q0 148 -56.5 227.5t-162.5 79.5zM754 1386l-197 -139 q-55 -39 -100 -39q-39 0 -73 38t-34 74q0 59 64 109l176 135q59 45 111 45q43 0 80.5 -38.5t37.5 -88.5t-65 -96z" />
<glyph unicode="&#xf4;" horiz-adv-x="1130" d="M565 -23q-226 0 -364 149.5t-138 395.5q0 251 138 397t364 146q229 0 365.5 -148t136.5 -395t-139.5 -396t-362.5 -149zM567 829q-107 0 -165 -80.5t-58 -226.5q0 -141 57.5 -225t163.5 -84t163.5 83.5t57.5 225.5q0 148 -56.5 227.5t-162.5 79.5zM402 1236 q-36 -24 -78 -24q-41 0 -75 36.5t-34 80.5q0 57 56 92l182 112q57 35 113 35q54 0 112 -35l183 -112q55 -34 55 -92q0 -46 -34.5 -81.5t-74.5 -35.5t-78 24l-163 109z" />
<glyph unicode="&#xf5;" horiz-adv-x="1130" d="M565 -23q-226 0 -364 149.5t-138 395.5q0 251 138 397t364 146q229 0 365.5 -148t136.5 -395t-139.5 -396t-362.5 -149zM567 829q-107 0 -165 -80.5t-58 -226.5q0 -141 57.5 -225t163.5 -84t163.5 83.5t57.5 225.5q0 148 -56.5 227.5t-162.5 79.5zM441 1308 q-41 0 -70 -41q-37 -55 -84 -55q-32 0 -62 24.5t-30 65.5q0 72 71 137.5t165 65.5q70 0 137 -39q79 -49 121 -49q40 0 69 41q25 34 40.5 44.5t43.5 10.5q32 0 62 -24.5t30 -65.5q0 -71 -69.5 -137t-165.5 -66q-73 0 -137 39q-80 49 -121 49z" />
<glyph unicode="&#xf6;" horiz-adv-x="1130" d="M565 -23q-226 0 -364 149.5t-138 395.5q0 251 138 397t364 146q229 0 365.5 -148t136.5 -395t-139.5 -396t-362.5 -149zM567 829q-107 0 -165 -80.5t-58 -226.5q0 -141 57.5 -225t163.5 -84t163.5 83.5t57.5 225.5q0 148 -56.5 227.5t-162.5 79.5zM783 1214 q-62 0 -104 42.5t-42 102.5q0 61 42.5 105.5t103.5 44.5q59 0 103 -45t44 -105q0 -61 -44.5 -103t-102.5 -42zM338 1214q-62 0 -103.5 41.5t-41.5 103.5t42.5 106t102.5 44q61 0 104.5 -46t43.5 -104q0 -59 -44 -102t-104 -43z" />
<glyph unicode="&#xf7;" horiz-adv-x="1274" d="M637 752q-62 0 -106 43.5t-44 105.5q0 64 42.5 108t107.5 44q63 0 106 -44.5t43 -107.5q0 -62 -43.5 -105.5t-105.5 -43.5zM1012 401h-752q-139 0 -139 123q0 127 139 127h752q141 0 141 -127q0 -123 -141 -123zM637 0q-63 0 -106.5 44.5t-43.5 107.5t42.5 106t107.5 43 q62 0 105.5 -43.5t43.5 -105.5q0 -63 -43 -107.5t-106 -44.5z" />
<glyph unicode="&#xf8;" horiz-adv-x="1130" d="M942 903q125 -150 125 -381q0 -247 -139.5 -396t-362.5 -149q-125 0 -231 52l-86 -126q-29 -44 -74 -44q-41 0 -70.5 27t-29.5 61q0 38 30 76l84 120q-125 148 -125 379q0 252 139 398.5t363 146.5q128 0 230 -51l65 94q38 55 82 55q33 0 66.5 -29t33.5 -57 q0 -31 -28 -71zM342 365l326 466q-52 23 -101 23q-119 0 -183.5 -87t-64.5 -245q0 -90 23 -157zM788 684l-325 -469q46 -22 102 -22q118 0 183 90t65 239q0 95 -25 162z" />
<glyph unicode="&#xf9;" horiz-adv-x="1178" d="M135 956q0 111 137 111q140 0 140 -111v-553q0 -85 42 -136.5t124 -51.5q92 0 138 62.5t46 187.5v491q0 111 141 111q135 0 135 -111v-874q0 -53 -28.5 -79t-110.5 -26q-77 0 -107 25t-30 80v57q-52 -81 -123.5 -121.5t-163.5 -40.5q-163 0 -251.5 102.5t-88.5 295.5v581 zM553 1564l177 -135q63 -48 63 -109q0 -38 -34 -75t-73 -37q-47 0 -100 39l-196 139q-66 47 -66 96q0 51 38 89t81 38q53 0 110 -45z" />
<glyph unicode="&#xfa;" horiz-adv-x="1178" d="M135 956q0 111 137 111q140 0 140 -111v-553q0 -85 42 -136.5t124 -51.5q92 0 138 62.5t46 187.5v491q0 111 141 111q135 0 135 -111v-874q0 -53 -28.5 -79t-110.5 -26q-77 0 -107 25t-30 80v57q-52 -81 -123.5 -121.5t-163.5 -40.5q-163 0 -251.5 102.5t-88.5 295.5v581 zM784 1386l-197 -139q-55 -39 -100 -39q-39 0 -73 38t-34 74q0 59 64 109l176 135q59 45 111 45q43 0 80.5 -38.5t37.5 -88.5t-65 -96z" />
<glyph unicode="&#xfb;" horiz-adv-x="1178" d="M135 956q0 111 137 111q140 0 140 -111v-553q0 -85 42 -136.5t124 -51.5q92 0 138 62.5t46 187.5v491q0 111 141 111q135 0 135 -111v-874q0 -53 -28.5 -79t-110.5 -26q-77 0 -107 25t-30 80v57q-52 -81 -123.5 -121.5t-163.5 -40.5q-163 0 -251.5 102.5t-88.5 295.5v581 zM424 1236q-36 -24 -78 -24q-41 0 -75 36.5t-34 80.5q0 57 56 92l182 112q57 35 113 35q54 0 112 -35l183 -112q55 -34 55 -92q0 -46 -34.5 -81.5t-74.5 -35.5t-78 24l-163 109z" />
<glyph unicode="&#xfc;" horiz-adv-x="1178" d="M135 956q0 111 137 111q140 0 140 -111v-553q0 -85 42 -136.5t124 -51.5q92 0 138 62.5t46 187.5v491q0 111 141 111q135 0 135 -111v-874q0 -53 -28.5 -79t-110.5 -26q-77 0 -107 25t-30 80v57q-52 -81 -123.5 -121.5t-163.5 -40.5q-163 0 -251.5 102.5t-88.5 295.5v581 zM803 1214q-62 0 -104 42.5t-42 102.5q0 61 42.5 105.5t103.5 44.5q59 0 103 -45t44 -105q0 -61 -44.5 -103t-102.5 -42zM358 1214q-62 0 -103.5 41.5t-41.5 103.5t42.5 106t102.5 44q61 0 104.5 -46t43.5 -104q0 -59 -44 -102t-104 -43z" />
<glyph unicode="&#xfd;" horiz-adv-x="1059" d="M387 25q-150 271 -243 542t-93 400q0 45 39 73.5t103 28.5q55 0 82.5 -19t37.5 -73q67 -368 222 -692q125 288 208 700q18 84 123 84q59 0 100.5 -28.5t41.5 -73.5q0 -84 -87 -355q-47 -146 -111 -293.5t-143 -296.5q-138 -253 -271 -354.5t-285 -101.5q-117 0 -117 123 q0 86 88 98q96 10 172.5 69.5t132.5 168.5zM731 1386l-197 -139q-55 -39 -100 -39q-39 0 -73 38t-34 74q0 59 64 109l176 135q59 45 111 45q43 0 80.5 -38.5t37.5 -88.5t-65 -96z" />
<glyph unicode="&#xfe;" horiz-adv-x="1171" d="M139 1425q0 111 137 111q140 0 140 -111v-520q42 80 112.5 120t169.5 40q180 0 295 -145t115 -400q0 -250 -119 -395t-313 -145q-94 0 -159 38t-101 115v-452q0 -56 -30.5 -84.5t-111.5 -28.5q-75 0 -105 27t-30 86v1744zM416 446q0 -100 57 -162.5t152 -62.5 q96 0 149 80.5t53 218.5q0 151 -50.5 227t-151.5 76q-95 0 -152 -60t-57 -167v-150z" />
<glyph unicode="&#xff;" horiz-adv-x="1059" d="M387 25q-150 271 -243 542t-93 400q0 45 39 73.5t103 28.5q55 0 82.5 -19t37.5 -73q67 -368 222 -692q125 288 208 700q18 84 123 84q59 0 100.5 -28.5t41.5 -73.5q0 -84 -87 -355q-47 -146 -111 -293.5t-143 -296.5q-138 -253 -271 -354.5t-285 -101.5q-117 0 -117 123 q0 86 88 98q96 10 172.5 69.5t132.5 168.5zM750 1214q-62 0 -104 42.5t-42 102.5q0 61 42.5 105.5t103.5 44.5q59 0 103 -45t44 -105q0 -61 -44.5 -103t-102.5 -42zM305 1214q-62 0 -103.5 41.5t-41.5 103.5t42.5 106t102.5 44q61 0 104.5 -46t43.5 -104q0 -59 -44 -102 t-104 -43z" />
<glyph unicode="&#x131;" horiz-adv-x="555" d="M416 88q0 -111 -140 -111q-137 0 -137 111v873q0 52 28 79t112 27q137 0 137 -106v-873z" />
<glyph unicode="&#x152;" horiz-adv-x="1978" d="M1049 127q-114 -147 -322 -147q-302 0 -468.5 194t-166.5 526q0 307 169 510t466 203q202 0 328 -135q44 115 202 115h490q86 0 117.5 -23.5t31.5 -99.5q0 -81 -33.5 -104t-115.5 -23h-389q-35 0 -35 -39v-254h358q96 0 125 -28t29 -93q0 -74 -30 -101.5t-124 -27.5h-358 v-315q0 -35 29 -35h389q83 0 119 -23t36 -100q0 -81 -34 -104t-121 -23h-496q-161 0 -196 127zM1040 897q0 121 -83.5 188.5t-229.5 67.5q-167 0 -259.5 -127t-92.5 -326q0 -220 90.5 -340t261.5 -120q147 0 230 62.5t83 172.5v422z" />
<glyph unicode="&#x153;" horiz-adv-x="1804" d="M1053 424q9 -105 74.5 -165t164.5 -60q122 0 221 56q38 21 72 21q44 0 73.5 -32.5t29.5 -75.5q0 -82 -125.5 -136.5t-294.5 -54.5q-235 0 -357 175q-128 -175 -346 -175q-226 0 -364 149.5t-138 395.5q0 252 139 398.5t363 146.5q234 0 357 -184q127 184 356 184 q206 0 335.5 -130t129.5 -349q0 -91 -36 -127.5t-114 -36.5h-540zM1462 627q-4 111 -51.5 167t-138.5 56q-94 0 -154 -59.5t-65 -163.5h409zM567 836q-107 0 -165 -83.5t-58 -230.5q0 -143 57.5 -228t163.5 -85q104 0 162.5 84t58.5 229q0 149 -57 231.5t-162 82.5z" />
<glyph unicode="&#x178;" horiz-adv-x="1065" d="M680 532v-434q0 -121 -143 -121q-73 0 -106.5 26.5t-33.5 94.5v437q-146 150 -253 373t-107 386q0 65 30 93t111 28q71 0 100 -22.5t35 -79.5q32 -207 80.5 -325.5t147.5 -229.5q118 135 169 254.5t74 281.5q9 65 38 93t104 28q83 0 111 -27.5t28 -91.5q0 -172 -110 -384 t-275 -380zM740 1503q-62 0 -104 42.5t-42 102.5q0 61 42.5 105.5t103.5 44.5q59 0 103 -45t44 -105q0 -61 -44.5 -103t-102.5 -42zM295 1503q-62 0 -103.5 41.5t-41.5 103.5t42.5 106t102.5 44q61 0 104.5 -46t43.5 -104q0 -59 -44 -102t-104 -43z" />
<glyph unicode="&#x2c6;" horiz-adv-x="819" d="M246 1255q-36 -24 -78 -24q-41 0 -75 36.5t-34 80.5q0 57 56 92l182 112q57 35 113 35q54 0 112 -35l183 -112q55 -34 55 -92q0 -46 -34.5 -81.5t-74.5 -35.5t-78 24l-163 109z" />
<glyph unicode="&#x2da;" horiz-adv-x="737" d="M369 1729q102 0 174.5 -73t72.5 -175q0 -103 -73 -175.5t-174 -72.5q-103 0 -175.5 72.5t-72.5 175.5q0 102 72.5 175t175.5 73zM369 1386q38 0 66 28.5t28 66.5t-28 66t-66 28t-66.5 -28t-28.5 -66q0 -39 28 -67t67 -28z" />
<glyph unicode="&#x2dc;" horiz-adv-x="829" d="M291 1327q-41 0 -70 -41q-37 -55 -84 -55q-32 0 -62 24.5t-30 65.5q0 72 71 137.5t165 65.5q70 0 137 -39q79 -49 121 -49q40 0 69 41q25 34 40.5 44.5t43.5 10.5q32 0 62 -24.5t30 -65.5q0 -71 -69.5 -137t-165.5 -66q-73 0 -137 39q-80 49 -121 49z" />
<glyph unicode="&#x3bc;" horiz-adv-x="1178" d="M416 84v-375q0 -110 -142 -110q-78 0 -106.5 27t-28.5 81v1249q0 111 140 111q76 0 106.5 -25.5t30.5 -85.5v-507q0 -88 47 -148.5t135 -60.5q83 0 124.5 45.5t41.5 136.5v534q0 111 143 111q78 0 106.5 -27.5t28.5 -83.5v-870q0 -109 -143 -109q-135 0 -135 109v4 q-56 -104 -170 -104q-116 0 -178 98z" />
<glyph unicode="&#x2000;" horiz-adv-x="949" />
<glyph unicode="&#x2001;" horiz-adv-x="1898" />
<glyph unicode="&#x2002;" horiz-adv-x="949" />
<glyph unicode="&#x2003;" horiz-adv-x="1898" />
<glyph unicode="&#x2004;" horiz-adv-x="632" />
<glyph unicode="&#x2005;" horiz-adv-x="474" />
<glyph unicode="&#x2006;" horiz-adv-x="316" />
<glyph unicode="&#x2007;" horiz-adv-x="316" />
<glyph unicode="&#x2008;" horiz-adv-x="237" />
<glyph unicode="&#x2009;" horiz-adv-x="379" />
<glyph unicode="&#x200a;" horiz-adv-x="105" />
<glyph unicode="&#x2010;" horiz-adv-x="756" d="M571 420h-387q-137 0 -137 129t137 129h387q140 0 140 -129t-140 -129z" />
<glyph unicode="&#x2011;" horiz-adv-x="756" d="M571 420h-387q-137 0 -137 129t137 129h387q140 0 140 -129t-140 -129z" />
<glyph unicode="&#x2013;" horiz-adv-x="999" d="M817 430h-635q-135 0 -135 125t135 125h635q135 0 135 -125t-135 -125z" />
<glyph unicode="&#x2014;" horiz-adv-x="1602" d="M1419 428h-1237q-135 0 -135 123q0 127 135 127h1237q135 0 135 -127q0 -123 -135 -123z" />
<glyph unicode="&#x2018;" horiz-adv-x="455" d="M389 1208q-39 -149 -39 -256q0 -131 -129 -131q-135 0 -135 135q0 148 63.5 302.5t147.5 154.5q54 0 87.5 -28t33.5 -74q0 -37 -29 -103z" />
<glyph unicode="&#x2019;" horiz-adv-x="455" d="M63 1024q41 143 41 256q0 131 129 131q134 0 134 -135q0 -140 -62.5 -298.5t-146.5 -158.5q-53 0 -87 29t-34 74q0 41 26 102z" />
<glyph unicode="&#x201a;" horiz-adv-x="459" d="M158 -262q-53 0 -87 28.5t-34 73.5q0 37 26 103q41 137 41 256q0 131 129 131q130 0 134 -135q0 -144 -63 -300.5t-146 -156.5z" />
<glyph unicode="&#x201c;" horiz-adv-x="903" d="M389 1208q-39 -149 -39 -256q0 -131 -129 -131q-135 0 -135 135q0 152 63 304.5t148 152.5q54 0 87.5 -28t33.5 -74q0 -37 -29 -103zM745 1413q56 0 88.5 -28t32.5 -74q0 -44 -26 -103q-41 -132 -41 -256q0 -131 -127 -131q-135 0 -135 135q0 158 63.5 307.5t144.5 149.5 z" />
<glyph unicode="&#x201d;" horiz-adv-x="905" d="M514 1024q41 143 41 256q0 131 127 131q135 0 135 -135q0 -145 -63.5 -301t-147.5 -156q-52 0 -85.5 29t-33.5 74q0 38 27 102zM63 1024q41 143 41 256q0 131 129 131q135 -3 135 -116q0 -9 -1 -19q0 -158 -66 -307.5t-143 -149.5q-53 0 -87 29t-34 74q0 41 26 102z" />
<glyph unicode="&#x201e;" horiz-adv-x="897" d="M606 -258q-52 0 -85.5 28t-33.5 74q0 28 27 103q41 132 41 254q0 131 127 131q135 0 135 -133q0 -152 -62 -304.5t-149 -152.5zM158 -258q-53 0 -87 28t-34 74q0 31 26 103q41 132 41 254q0 131 129 131q134 0 134 -127v-6q0 -161 -63.5 -309t-145.5 -148z" />
<glyph unicode="&#x2022;" horiz-adv-x="965" d="M483 338q-135 0 -231 96t-96 230q0 135 96.5 231t230.5 96q133 0 229.5 -96t96.5 -231q0 -134 -95.5 -230t-230.5 -96z" />
<glyph unicode="&#x2026;" horiz-adv-x="1622" d="M268 -20q-76 0 -121 45.5t-45 121.5t44.5 122t121.5 46q76 0 123 -47t47 -121q0 -72 -48 -119.5t-122 -47.5zM809 -20q-76 0 -121 45.5t-45 121.5t44.5 122t121.5 46q75 0 122.5 -47t47.5 -121q0 -73 -48.5 -120t-121.5 -47zM1350 -20q-78 0 -122 46t-44 121q0 76 44 122 t122 46q75 0 122.5 -47t47.5 -121q0 -73 -48.5 -120t-121.5 -47z" />
<glyph unicode="&#x202f;" horiz-adv-x="379" />
<glyph unicode="&#x2039;" horiz-adv-x="805" d="M387 547l309 -240q49 -43 49 -96q0 -40 -41 -77.5t-82 -37.5q-52 0 -102 41l-381 314q-51 42 -51 100q0 52 51 94l387 316q53 43 94 43q44 0 84.5 -37.5t40.5 -81.5q0 -51 -49 -90z" />
<glyph unicode="&#x203a;" horiz-adv-x="805" d="M419 553l-309 240q-49 43 -49 96q0 40 41 77.5t82 37.5q52 0 102 -41l381 -314q51 -42 51 -100q0 -52 -51 -94l-387 -316q-53 -43 -94 -43q-44 0 -84.5 37.5t-40.5 81.5q0 51 49 90z" />
<glyph unicode="&#x2044;" horiz-adv-x="279" d="M637 1249l-791 -1194q-50 -75 -96 -75t-81.5 29.5t-35.5 72.5q0 35 29 74l801 1206q34 51 86 51q54 0 83.5 -28t29.5 -68q0 -32 -25 -68z" />
<glyph unicode="&#x205f;" horiz-adv-x="474" />
<glyph unicode="&#x2074;" horiz-adv-x="791" d="M660 708v-61q0 -98 -101 -98q-60 0 -82 24t-22 74v61h-285q-59 0 -96 35t-37 96q0 42 23 88l208 412q33 66 82 66q45 0 76 -23t31 -59q0 -38 -27 -84l-178 -350h203v233q0 48 22 69t82 21q101 0 101 -90v-231h26q57 0 78 -19.5t21 -68.5q0 -54 -21 -74.5t-78 -20.5h-26z " />
<glyph unicode="&#x20ac;" d="M494 954h315q76 0 101.5 -23t25.5 -75t-26 -77t-101 -25h-340l-2 -34v-71q0 -16 2 -28h272q77 0 102 -24t25 -75q0 -52 -26 -77t-101 -25h-247q22 -100 78.5 -149.5t146.5 -49.5q75 0 155 37q70 35 101 35q39 0 69.5 -45t30.5 -90q0 -64 -111 -121t-262 -57 q-206 0 -328.5 110t-162.5 330h-51q-77 0 -102 24.5t-25 77.5q0 52 24 75.5t103 23.5h33l-7 72l7 61h-33q-77 0 -102 24.5t-25 77.5t24.5 75.5t102.5 22.5h53q48 229 180 344t348 115q140 0 239 -46t99 -116q0 -52 -36 -97.5t-76 -45.5q-28 0 -80 29q-67 37 -144 37 q-99 0 -161 -55t-88 -165z" />
<glyph unicode="&#x2122;" horiz-adv-x="1673" d="M1538 645q0 -49 -24.5 -63.5t-73.5 -14.5q-56 0 -73 15t-17 63v442h-4l-103 -182q-31 -55 -98 -55q-74 0 -103 55l-94 170h-4v-430q0 -44 -17.5 -61t-76.5 -17q-60 0 -77 18.5t-17 59.5v653q0 105 106 105q43 0 65 -12.5t42 -49.5l176 -288l180 293q35 57 105 57 q56 0 82 -22.5t26 -82.5v-653zM434 1223v-578q0 -78 -100 -78q-61 0 -79.5 19t-18.5 59v578h-138q-90 0 -90 88q0 48 20.5 67t69.5 19h475q50 0 68 -19t18 -67q0 -88 -86 -88h-139z" />
</font>
</defs>
</svg>
